<svg xmlns="http://www.w3.org/2000/svg" height="768" width="1024"><g style="font-style:oblique;font-weight:600;font-size:32px;line-height:1;font-family:Taviraj;font-variant-ligatures:none;text-align:center;text-anchor:middle" fill="#b51b15"><path style="font-style:oblique;font-weight:600;font-size:32px;line-height:1;font-family:Taviraj;font-variant-ligatures:none;text-align:center;text-anchor:middle" d="M339.394-1.184h.896q1.792 0 2.016-1.216l3.584-17.568q.032-.128.032-.32 0-.896-1.536-.896h-.928l.256-1.216h7.36l7.584 16.384 2.848-13.952q.032-.128.032-.32 0-.896-1.504-.896h-.96l.256-1.216h7.328l-.256 1.216h-.928q-.896 0-1.376.288-.448.288-.608.928L359.458 0h-2.496l-9.152-19.552L344.29-2.4q-.032.096-.032.288 0 .928 1.472.928h.96L346.466 0h-7.296zM371.908.32q-3.552 0-5.408-1.472-1.824-1.472-1.824-4.288 0-1.056.224-2.08.768-3.808 3.424-5.824 2.656-2.016 6.816-2.016 3.552 0 5.376 1.472 1.856 1.44 1.856 4.224 0 1.056-.224 2.144-.768 3.808-3.424 5.824Q376.1.32 371.908.32zm.384-1.696q1.92 0 3.328-1.568t2.016-4.576q.256-1.152.256-2.336 0-1.856-.832-2.816-.8-.992-2.272-.992-1.92 0-3.328 1.568t-2.016 4.576q-.256 1.152-.256 2.336 0 1.856.8 2.848.832.96 2.304.96zM400.128-1.952q0 .672.672.672.448 0 1.216-.224l-.16.8q-.704.512-1.728.768-.992.288-1.984.288-1.056 0-1.856-.384-.8-.416-.8-1.28 0-.256.032-.384l1.824-8.896q.096-.576.096-.992 0-1.984-2.048-1.984-.864 0-1.856.672-.96.672-1.792 1.888-.8 1.216-1.216 2.784L388.864 0l-4.608.32 2.464-12q.032-.096.032-.288 0-.352-.224-.48-.192-.16-.448-.16-.16 0-.8.16l-.032-.992 5.728-1.824h.992l-.64 3.136q1.024-1.408 2.688-2.304 1.696-.928 3.296-.928 2.4 0 3.552.896 1.184.864 1.184 2.432 0 .32-.128 1.088l-1.76 8.608q-.032.16-.032.384zM424.45-23.104q4.704 0 4.704 2.752 0 .416-.096.8-.352 1.76-1.984 1.76-.576 0-.928-.224-.32-.224-.32-.672 0-.192.032-.288.064-.256.256-.608.224-.352.256-.544.032-.096.032-.256 0-.512-.448-.8-.416-.288-1.088-.288-1.952 0-2.56 2.88l-.736 3.552h4.384l-.352 1.664h-4.352l-3.648 17.952-4.544.256 3.68-18.208h-2.752l.352-1.664h2.752l.608-3.008q.512-2.432 2.304-3.744 1.824-1.312 4.448-1.312zM429.586.288q-2.048 0-2.976-1.152-.896-1.184-.896-3.072 0-1.12.224-2.112.896-4.352 3.168-6.816 2.304-2.464 6.112-2.464.96 0 1.92.288t1.408.864l.16-.864h4.512l-2.592 12.672q-.032.16-.032.448 0 .64.608.64.32 0 .736-.096.448-.128.576-.16l-.192.8q-.704.512-1.824.768-1.088.256-2.144.256-.992 0-1.696-.384t-.704-1.216q0-.256.032-.384l.608-3.104q-1.6 2.208-3.52 3.648t-3.488 1.44zm1.76-1.792q.736 0 2.016-1.216t2.432-2.816q1.152-1.632 1.472-2.528l.768-3.712q-.128-.96-.64-1.312-.48-.384-1.408-.384-1.024 0-2.208.864-1.152.864-2.112 2.528-.96 1.632-1.408 3.84-.192.8-.192 1.664 0 1.28.352 2.176.352.896.928.896zM457.86-15.36q.992 0 1.664.352.672.32.672 1.12 0 .192-.032.32-.192.896-.736 1.344-.544.448-1.28.448-.416 0-.64-.128-.224-.16-.48-.48-.256-.288-.448-.416-.16-.128-.544-.128-.64 0-1.472.64t-1.6 1.792q-.768 1.152-1.152 2.656l-1.6 7.84-4.608.32 2.464-12q.032-.096.032-.256 0-.672-.736-.672-.064 0-.768.16l-.032-.992 5.728-1.824h1.024l-.64 3.168q.864-1.536 2.4-2.4 1.536-.864 2.784-.864zM465.372-4.256q-.128.608-.128 1.216 0 1.792 1.728 1.792.96 0 1.76-.512.832-.544 1.248-1.728h1.216q-.576 1.984-2.048 2.912-1.44.896-3.552.896-2.304 0-3.616-.736-1.28-.768-1.28-2.56 0-.64.128-1.248l1.856-9.152h-2.08l.32-1.664h2.112l.352-1.792 4.16-2.56h.896l-.896 4.352h4.256l-.32 1.664h-4.256zM489.654-10.848q-.64 2.912-4 4.192-3.36 1.28-7.84 1.536.096 1.792.992 2.848.928 1.024 2.56 1.024 4.16 0 5.824-4.192h1.184q-.8 2.56-2.88 4.16-2.048 1.6-5.088 1.6-3.488 0-5.344-1.44-1.824-1.472-1.824-4.288 0-1.024.224-2.112.736-3.616 3.36-5.728 2.624-2.112 6.496-2.112 6.432 0 6.432 3.616 0 .416-.096.896zm-11.776 4.256q3.36-.384 5.664-1.536 2.336-1.152 2.336-3.488 0-2.08-2.56-2.112-2.08 0-3.424 1.856-1.312 1.824-1.856 4.384-.128.672-.16.896zM494.3.32q-1.055 0-1.855-.384-.768-.384-.768-1.248 0-.256.032-.384l3.584-17.664q.032-.128.032-.32 0-.64-.704-.64-.096 0-.32.064-.192.064-.448.128l-.064-.992 5.76-1.824h.992l-4.224 20.576q-.032.16-.032.448 0 .64.608.64.32 0 .736-.096.448-.128.576-.16l-.192.8q-.704.512-1.728.768-.992.288-1.984.288zM508.158.32q-3.552 0-5.408-1.472-1.824-1.472-1.824-4.288 0-1.056.224-2.08.768-3.808 3.424-5.824 2.656-2.016 6.816-2.016 3.552 0 5.376 1.472 1.856 1.44 1.856 4.224 0 1.056-.224 2.144-.768 3.808-3.424 5.824Q512.35.32 508.158.32zm.384-1.696q1.92 0 3.328-1.568t2.016-4.576q.256-1.152.256-2.336 0-1.856-.832-2.816-.8-.992-2.272-.992-1.92 0-3.328 1.568t-2.016 4.576q-.256 1.152-.256 2.336 0 1.856.8 2.848.832.96 2.304.96zM533.497.32q-3.104 0-4.608-.896-1.472-.896-1.472-2.304 0-.896.544-1.44.544-.544 1.28-.544.48 0 .8.256.352.256.352.672 0 .32-.192.576-.16.256-.192.448-.128.608.544 1.088.672.448 2.08.448 1.536 0 2.56-.544 1.056-.544 1.28-1.6.032-.096.032-.256 0-.672-.672-1.056-.64-.384-2.112-.928-1.44-.512-2.368-.96-.928-.48-1.6-1.312-.672-.832-.672-2.08 0-.512.096-1.024.416-1.984 2.24-3.104 1.856-1.12 5.024-1.12 3.008 0 4.448.864 1.472.864 1.472 2.272 0 .928-.544 1.504-.544.544-1.28.544-.544 0-.896-.32-.32-.32-.192-.832.032-.192.16-.384.16-.224.192-.416.128-.576-.608-1.024-.704-.48-2.112-.48-1.344 0-2.272.48-.928.48-1.12 1.344-.032.096-.032.288 0 .768.704 1.184.736.416 2.272.896 1.44.48 2.368.928.928.448 1.568 1.248.672.8.672 2.016 0 .288-.128 1.056-.48 2.368-2.624 3.456Q536.377.32 533.497.32zM546.44-11.68q.032-.096.032-.256 0-.672-.704-.672-.128 0-.768.16l-.064-.992 5.728-1.824h.992l-.64 3.2q.992-1.408 2.432-2.336 1.472-.96 3.104-.96 2.56 0 3.968 1.312t1.408 3.84q0 .96-.256 2.304-.896 4.384-3.232 6.304-2.336 1.92-6.048 1.92-1.248 0-2.24-.512-.96-.512-1.312-1.312l-1.76 8.64-4.544.256zm5.792 10.304q3.648 0 4.96-6.368.352-1.824.352-2.944 0-1.504-.576-2.24-.576-.736-1.792-.736-.8 0-1.856.864-1.024.832-1.888 2.112-.864 1.248-1.184 2.4l-.64 3.072q-.128.704-.128 1.024 0 1.28.704 2.048.736.768 2.048.768zM570.095.32q-3.552 0-5.408-1.472-1.824-1.472-1.824-4.288 0-1.056.224-2.08.768-3.808 3.424-5.824 2.656-2.016 6.816-2.016 3.552 0 5.376 1.472 1.856 1.44 1.856 4.224 0 1.056-.224 2.144-.768 3.808-3.424 5.824Q574.287.32 570.095.32zm.384-1.696q1.92 0 3.328-1.568t2.016-4.576q.256-1.152.256-2.336 0-1.856-.832-2.816-.8-.992-2.272-.992-1.92 0-3.328 1.568t-2.016 4.576q-.256 1.152-.256 2.336 0 1.856.8 2.848.832.96 2.304.96zM588.14-17.824q-.864 0-1.376-.48-.512-.512-.512-1.312 0-.192.064-.576.224-1.056.96-1.696.768-.672 1.824-.672.896 0 1.408.512.544.512.544 1.344 0 1.184-.864 2.048-.864.832-2.048.832zM585.548.32q-1.056 0-1.856-.384-.768-.384-.768-1.248 0-.256.032-.384l2.048-10.016q.032-.096.032-.256 0-.672-.736-.672-.064 0-.768.16l-.032-.992 5.824-1.824h.896l-2.656 12.928q-.032.16-.032.448 0 .64.64.64.288 0 .704-.096.448-.128.576-.16l-.192.8q-.704.512-1.728.768-.992.288-1.984.288zM596.176.32q-1.056 0-1.856-.384-.768-.384-.768-1.248 0-.256.032-.384l3.584-17.664q.032-.128.032-.32 0-.64-.704-.64-.096 0-.32.064-.192.064-.448.128l-.064-.992 5.76-1.824h.992l-4.224 20.576q-.032.16-.032.448 0 .64.608.64.32 0 .736-.096.448-.128.576-.16l-.192.8q-.704.512-1.728.768-.992.288-1.984.288zM619.217-10.848q-.64 2.912-4 4.192-3.36 1.28-7.84 1.536.096 1.792.992 2.848.928 1.024 2.56 1.024 4.16 0 5.824-4.192h1.184q-.8 2.56-2.88 4.16-2.048 1.6-5.088 1.6-3.488 0-5.344-1.44-1.824-1.472-1.824-4.288 0-1.024.224-2.112.736-3.616 3.36-5.728 2.624-2.112 6.496-2.112 6.432 0 6.432 3.616 0 .416-.096.896zM607.44-6.592q3.36-.384 5.664-1.536 2.336-1.152 2.336-3.488 0-2.08-2.56-2.112-2.08 0-3.424 1.856-1.312 1.824-1.856 4.384-.128.672-.16.896zM633.047-15.36q.992 0 1.664.352.672.32.672 1.12 0 .192-.032.32-.192.896-.736 1.344-.544.448-1.28.448-.416 0-.64-.128-.224-.16-.48-.48-.256-.288-.448-.416-.16-.128-.544-.128-.64 0-1.472.64t-1.6 1.792Q627.383-9.344 627-7.84L625.4 0l-4.608.32 2.464-12q.032-.096.032-.256 0-.672-.736-.672-.064 0-.768.16l-.032-.992 5.728-1.824h1.024l-.64 3.168q.864-1.536 2.4-2.4 1.536-.864 2.784-.864zM639.023.288q-2.048 0-2.976-1.152-.896-1.184-.896-3.072 0-1.12.224-2.112.896-4.352 3.168-6.816 2.304-2.464 6.112-2.464.96 0 1.92.288t1.408.864l.16-.864h4.512l-2.592 12.672q-.032.16-.032.448 0 .64.608.64.32 0 .736-.096.448-.128.576-.16l-.192.8q-.704.512-1.824.768-1.088.256-2.144.256-.992 0-1.696-.384t-.704-1.216q0-.256.032-.384l.608-3.104q-1.6 2.208-3.52 3.648t-3.488 1.44zm1.76-1.792q.736 0 2.016-1.216t2.432-2.816q1.152-1.632 1.472-2.528l.768-3.712q-.128-.96-.64-1.312-.48-.384-1.408-.384-1.024 0-2.208.864-1.152.864-2.112 2.528-.96 1.632-1.408 3.84-.192.8-.192 1.664 0 1.28.352 2.176.352.896.928.896zM667.297-15.36q.992 0 1.664.352.672.32.672 1.12 0 .192-.032.32-.192.896-.736 1.344-.544.448-1.28.448-.416 0-.64-.128-.224-.16-.48-.48-.256-.288-.448-.416-.16-.128-.544-.128-.64 0-1.472.64t-1.6 1.792q-.768 1.152-1.152 2.656L659.65 0l-4.608.32 2.464-12q.032-.096.032-.256 0-.672-.736-.672-.064 0-.768.16l-.032-.992 5.728-1.824h1.024l-.64 3.168q.864-1.536 2.4-2.4 1.536-.864 2.784-.864zM684.28-10.848q-.64 2.912-4 4.192-3.36 1.28-7.84 1.536.095 1.792.991 2.848.928 1.024 2.56 1.024 4.16 0 5.824-4.192H683q-.8 2.56-2.88 4.16-2.048 1.6-5.088 1.6-3.488 0-5.344-1.44-1.824-1.472-1.824-4.288 0-1.024.224-2.112.736-3.616 3.36-5.728 2.624-2.112 6.496-2.112 6.432 0 6.432 3.616 0 .416-.096.896zm-11.777 4.256q3.36-.384 5.664-1.536 2.336-1.152 2.336-3.488 0-2.08-2.56-2.112-2.08 0-3.424 1.856-1.312 1.824-1.856 4.384-.128.672-.16.896z" transform="matrix(.91 0 0 .91 46.287 447.257)"/></g><g style="font-style:normal;font-weight:400;font-size:72px;line-height:1;font-family:'Brandmark Script 1 Shadow';font-variant-ligatures:normal;text-align:center;text-anchor:middle"><g aria-label="J" transform="matrix(1.82 0 0 1.82 -421.93 404.99)"><path class="c1" d="M387.284-5.685c-.073 2.808 2.089 6.409 7.2 6.409 8.281 0 11.737-9.145 14.042-15.338 1.922-5.19 3.958-11.123 5.042-16.375.156-.75.254-1.367.306-1.886.981.026 1.887.044 2.14.044 3.528 0 7.993-.289 8.785-3.889.073-.432.144-.936.073-1.368 0-.144 0-.288-.145-.432 0-.144.072-.144.072-.216 0-.072-.072-.144-.144-.144a1.976 1.976 0 0 0-.576-1.08c-.504-.504-.864-.576-1.08-.432-.144.144-.072.288-.072.432.144.216.071.432 0 .648-.576 1.656-5.329 1.008-6.48 1.296-.145 0-.145-.072-.217-.072h-.144c-.073 0-.143-.072-.215-.072h-.289c-.144.072-5.04-.144-6.48-.144-4.032-.144-7.56-.144-10.585 1.8-1.225.72-2.305 2.016-2.593 3.384-.071.433-.36 1.369-.071 1.369.144.072.216-.216.504-.576.72-.864 1.8-1.224 2.736-1.512 2.66-.484 5.035.125 8.964.582-.538 3.258-2.493 9.649-2.771 10.434-.216.505-.36 1.009-.504 1.513v.288c-.073.072-.145.144-.145.216 0 .143-.072.216-.143.288-.073.144 0 .144 0 .216 0 .072-.073.216-.073.216-.072.144-.143.216-.143.36-.072.288-.072.576-.217.864-.071.144-.216.144-.216.36v.144c-.072.144-.143.216-.216.36-.144.648-.36 1.296-.576 1.944-.143.36-.288.72-.36 1.08-.144.36-.144.72-.288 1.008 0 .144-.144.216-.144.36v.144c0 .072-.072.072-.072.144-.071.072 0 .144-.071.216 0 .072-.073.145-.145.289-.072.071-.072.215-.072.36-1.945 6.12-4.617 10.439-7.642 10.439-1.502 0-3.303-1.165-3.014-3.47.143-1.295.863-2.001 1.8-2.433.215-.144.431-.144.431-.288.072-.432-.575-1.152-1.296-1.44-.72-.289-1.656-.72-2.808-.072-1.31.604-1.944 2.088-2.088 4.032z" fill="#b51b15"/><radialGradient id="a" cx="83.94" cy="86.886" r="33.486" gradientUnits="userSpaceOnUse" transform="translate(306.091 -118.992)"><stop offset=".045" style="stop-color:#110808;stop-opacity:0"/><stop offset=".683" style="stop-color:#110808;stop-opacity:0"/><stop offset="1" style="stop-color:#110808"/></radialGradient><path class="highlight" fill="url(#a)" d="M100.074 93.305a80.662 80.662 0 0 1-.88 2.864c-.216.504-.36 1.008-.504 1.512v.288c-.072.072-.144.144-.144.216 0 .144-.073.216-.144.288-.072.144 0 .144 0 .216 0 .072-.072.216-.072.216-.072.144-.144.216-.144.36-.072.288-.072.576-.216.864-.072.144-.216.144-.216.36v.144c-.072.144-.144.216-.216.36-.145.648-.36 1.296-.576 1.944-.144.36-.288.72-.36 1.08-.144.36-.144.72-.289 1.009 0 .144-.143.215-.143.36v.143c0 .073-.072.073-.072.144-.072.073 0 .145-.072.217 0 .072-.072.144-.144.288-.073.072-.073.216-.073.36-1.774 5.587-4.157 9.661-6.86 10.33 5.206-.87 11.023-7.203 15.274-17.5a127.217 127.217 0 0 0 1.92-6.063h-6.069z" transform="translate(306.091 -118.992)" opacity=".91"/><linearGradient id="b" gradientUnits="userSpaceOnUse" x1="106.111" y1="76.715" x2="101.817" y2="99.046"><stop offset=".327" style="stop-color:#110808"/><stop offset=".515" style="stop-color:#110808;stop-opacity:.68377"/><stop offset=".922" style="stop-color:#110808;stop-opacity:0"/></linearGradient><path class="highlight" fill="url(#b)" d="M98.397 98.71h6.052c1.215-3.597 2.323-7.294 3.028-10.707.155-.75.253-1.367.305-1.886a95.103 95.103 0 0 1-2.729-.099 61.456 61.456 0 0 1-3.088-.283c-.537 3.258-2.493 9.649-2.77 10.435-.217.504-.361 1.008-.505 1.512v.288c-.072.072-.144.144-.144.216 0 .144-.073.216-.144.288-.072.144 0 .144 0 .216 0 .005-.005.014-.005.02z" transform="translate(306.091 -118.992)" opacity=".91"/><radialGradient id="c" cx="110.844" cy="105.366" r="31.971" gradientUnits="userSpaceOnUse" transform="translate(306.091 -118.992)"><stop offset=".045" style="stop-color:#110808;stop-opacity:0"/><stop offset=".444" style="stop-color:#110808;stop-opacity:0"/><stop offset=".738" style="stop-color:#110808;stop-opacity:0"/><stop offset=".97" style="stop-color:#110808"/></radialGradient><path class="highlight" fill="url(#c)" d="M117.1 82.893c.85-1.216.937-3.728-.262-4.184l.002-.008c-.045.11-.004.221-.004.331.143.216.071.432 0 .648-.576 1.657-5.33 1.009-6.48 1.297-.145 0-.145-.073-.217-.073h-.144c-.072 0-.144-.071-.216-.071h-.288c-.099.049-2.356-.033-4.27-.093-.1-.004-3.92-.104-4.541-.106-1.187-.004-2.148.034-2.762.108-2.876.487-4.522 1.717-5.597 2.561-1.616 1.268-2.248 2.66-2.472 3.93.098-.057.192-.287.417-.568.72-.864 1.8-1.224 2.736-1.512 2.85-.519 5.377.219 9.842.678 4.31.268 12.078.179 14.257-2.938z" transform="translate(306.091 -118.992)" opacity=".91"/></g><g aria-label="u" transform="matrix(1.82 0 0 1.82 -421.93 404.99)"><path class="c1" d="M413.559-13.085c-.866 1.947-1.66 4.254-1.803 6.418-.145 2.813.959 6.995 4.243 6.995 2.462 0 4.472-1.465 6.5-3.938a55.47 55.47 0 0 0 2.246-2.955c-.057.67-.067 1.35-.008 2.061.144 1.298.578 2.669 1.732 3.75.779.78 1.926 1.116 3.008 1.116 1.154 0 3.235-.247 5.769-2.58.26-.227.516-.458.768-.694.103-.097.18-.2.27-.303.116-.133.278-.243.414-.355.195-.157.413-.327.574-.522a.582.582 0 0 0 .146-.328.503.503 0 0 0 .214-.032c.175-.07.248-.25.337-.399.104-.176.26-.14.385-.288.252-.293 2.488-2 2.736-3.547.1-.62-.174-1.66-1.341-1.937-.272.722-1.794 2.546-4.018 4.596-2.117 1.95-4.222 4.052-5.857 4.093-1.799.046-.347-4.055.611-5.962 1.736-3.455 4.385-7.5 5.215-8.868.432-.937.793-1.803.72-2.668 0-2.236-2.74-3.534-4.399-4.11-.72-.29-1.37-.434-1.442-.145-.072.144.217.36.072 1.154-.224.986-.53 1.842-.885 2.642-2.265 4.217-5.43 9.139-8.205 13.066-1.954 2.765-3.429 4-4.312 4-1.166 0-.182-3.091 1.191-5.995.384-.813.813-1.584 1.177-2.247.144-.071.216-.216.289-.36.143-.288.288-.504.504-.721.144-.072.144-.217.216-.36 0-.073 0-.217.073-.217.144-.072.216-.36.288-.577a.656.656 0 0 0 .217-.505c.072 0 .143-.072.216-.144.144-.289.216-.577.433-.866.793-1.658 1.875-3.677 1.803-5.048 0-.937-.434-1.875-1.227-2.38-1.153-.72-2.74-1.803-4.039-1.803-.577-.072-.865.072-.865.217-.072.288.072.36.145 1.081.36 2.524-3.03 7.284-4.111 9.665z" fill="#b51b15"/><radialGradient id="d" cx="118.809" cy="95.8" r="33.071" gradientUnits="userSpaceOnUse" transform="translate(326.415 -118.93)"><stop offset="0" style="stop-color:#110808;stop-opacity:0"/><stop offset=".548" style="stop-color:#110808;stop-opacity:0"/><stop offset=".936" style="stop-color:#110808"/></radialGradient><path class="highlight" fill="url(#d)" d="M106.632 115.323v-.009c-1.153.954-2.24 1.658-3.173 1.682-1.799.045-.347-4.056.61-5.963 1.736-3.455 4.385-7.5 5.216-8.867.432-.938.793-1.804.72-2.67 0-2.235-2.74-3.533-4.399-4.11-.72-.288-1.37-.433-1.443-.144-.071.144.217.36.073 1.154-.453 1.994-1.234 3.456-2.106 4.993-1.216 2.143-1.464 2.437-2.521 5.637-.488 1.475-.89 2.803-1.12 4.132.068 6.57 4.41 7.651 8.143 4.165z" transform="translate(326.415 -118.93)" opacity=".91"/><linearGradient id="e" gradientUnits="userSpaceOnUse" x1="118.185" y1="100.032" x2="101.138" y2="116.404"><stop offset=".21" style="stop-color:#110808"/><stop offset=".435" style="stop-color:#110808;stop-opacity:.68377"/><stop offset=".922" style="stop-color:#110808;stop-opacity:0"/></linearGradient><path class="highlight" fill="url(#e)" d="M113.333 108.306c-.272.723-1.793 2.546-4.018 4.596-.909.837-1.814 1.694-2.682 2.412l-.001.009c-3.733 3.486-8.075 2.405-8.144-4.165a12.639 12.639 0 0 0-.166 3.268c.144 1.298.577 2.668 1.731 3.75.78.78 1.926 1.115 3.008 1.115 1.154 0 3.235-.247 5.77-2.58.26-.227.515-.458.767-.694.104-.097.18-.2.27-.303.117-.133.279-.243.414-.355.195-.157.414-.327.575-.522a.582.582 0 0 0 .146-.327.503.503 0 0 0 .214-.033c.174-.07.248-.25.336-.399.105-.175.26-.14.386-.288.252-.293 2.488-2 2.736-3.547.099-.62-.174-1.659-1.342-1.937z" transform="translate(326.415 -118.93)" opacity=".91"/><radialGradient id="f" cx="105.931" cy="92.673" r="34.862" gradientUnits="userSpaceOnUse" transform="translate(326.415 -118.93)"><stop offset="0" style="stop-color:#110808;stop-opacity:0"/><stop offset=".5" style="stop-color:#110808;stop-opacity:0"/><stop offset=".954" style="stop-color:#110808"/></radialGradient><path class="highlight" fill="url(#f)" d="m92.378 115.323.001-.01c-.626.526-1.148.79-1.545.79-1.167 0-.182-3.09 1.19-5.994.385-.813.813-1.584 1.178-2.247.143-.07.216-.216.288-.36.144-.288.289-.504.505-.721.144-.072.144-.216.216-.36 0-.073 0-.217.072-.217.144-.072.217-.36.289-.577a.656.656 0 0 0 .216-.505c.073 0 .144-.072.216-.144.145-.288.216-.577.434-.866.793-1.658 1.875-3.677 1.802-5.048 0-.937-.433-1.875-1.226-2.38-1.153-.72-2.74-1.803-4.039-1.803-.577-.072-.866.072-.866.217-.07.288.073.36.145 1.082.361 2.524-3.029 7.283-4.11 9.664-.719 1.615-1.381 3.478-1.67 5.302.374 6.35 3.624 7.192 6.904 4.177z" transform="translate(326.415 -118.93)" opacity=".91"/><linearGradient id="g" gradientUnits="userSpaceOnUse" x1="110.812" y1="89.601" x2="85.212" y2="119.736"><stop offset=".377" style="stop-color:#110808"/><stop offset=".651" style="stop-color:#110808;stop-opacity:.49651"/><stop offset=".922" style="stop-color:#110808;stop-opacity:0"/></linearGradient><path class="highlight" fill="url(#g)" d="M99.621 107.058c1.077-3.193 1.327-3.486 2.556-5.622.445-.774.866-1.53 1.234-2.344-2.29 4.204-5.485 9.107-8.283 13.017-1.085 1.515-2.016 2.553-2.786 3.192l-.001.01c-3.299 2.995-6.543 2.133-6.88-4.219-.06.374-.112.747-.139 1.116-.162 2.812.916 7 4.2 7.02 2.463.015 4.48-1.438 6.525-3.899a55.467 55.467 0 0 0 2.263-2.94c.16-1.747.666-3.416 1.311-5.33z" transform="translate(326.415 -118.93)" opacity=".91"/></g><g aria-label="s" transform="matrix(1.82 0 0 1.82 -421.93 404.99)"><path class="c1" d="M449.467-15.206c-.062-.088-.12-.174-.185-.264-.594-.833-1.103-1.53-1.527-2.162.958-.48 2.25-1.475 2.667-1.93 1.188-1.294 1.451-2.617 1.59-3.564.187-1.268-1.673-2.71-2.033-2.853-1.08-.576-2.817-.599-3.536-.167-1.725 1.177-2.64 3.084-2.629 4.838.013 1.81.664 3.246 1.52 4.892.464.891 1.122 1.914 1.304 2.367.028.068.048.124.075.19a55 55 0 0 0-.744.406c-.045.026-.102.055-.146.08v.001c-1.831 1.024-3.665 2.153-4.566 2.577-.36.145-.432.504-.648.504-.216 0-.432.145-.576.288-.36.36-.94.68-2.434 2.145-1.752 1.718-2.245 3.314-2.245 4.754 0 2.017 2.016 3.817 6.12 3.817 3.528 0 6.553-.72 8.857-2.664.144-.073.216-.288.36-.433.072-.071.216 0 .288-.071.072-.073.072-.217.144-.36.073-.073.216-.145.288-.216.072-.145.072-.217.144-.36.072-.073.216-.144.288-.217.216-.288 1.225-1.872 1.08-3.888-.11-1.725-.609-3.105-1.527-4.707-.01-.017-.246-.426-.634-1.048 3.362-1.857 7.356-4.123 7.706-4.254.071-.072.36-.072.432-.144 0-.144.072-.144.215-.144.217-.072.433-.216.649-.288h.504l.216-.216c.36-.216 2.232-.864 2.448-.936.288 0 .288.072.433-.216.07-.216.143-.216.359-.288 0 0 .144-.216.144-.288-.072-.576-1.86-.056-2.603.166-3.012.898-4.582 1.622-5.878 2.126-1.798.695-3.968 1.62-5.92 2.527zm-2.774-6.307c.35-1.153 1.206-2.522 2.341-2.617.433-.071.433.433.36.72-.156.47-.572 1.247-1.411 2.093-.311.314-.859.638-1.415.878-.016-.348.01-.7.125-1.074zm1.118 12.72c-.216 1.513-.985 2.909-2.16 4.249-1.508 1.719-2.68 2.175-4.767 2.318-1.801.145-2.564-.427-2.598-.943-.142-2.125 3.452-4.587 4.38-5.331 1.356-1.085 2.689-1.869 3.885-2.508.248-.117.59-.29.993-.5.305 1.079.372 1.87.267 2.716z" fill="#b51b15"/><linearGradient id="h" gradientUnits="userSpaceOnUse" x1="91.088" y1="102.677" x2="103.152" y2="94.6"><stop offset=".368" style="stop-color:#110808"/><stop offset=".503" style="stop-color:#110808;stop-opacity:.68377"/><stop offset=".794" style="stop-color:#110808;stop-opacity:0"/></linearGradient><path class="highlight" fill="url(#h)" d="M96.957 98.538c.042.883.473 1.744 1.187 2.807.958-.48 2.25-1.475 2.667-1.93 1.188-1.294 1.451-2.617 1.59-3.563.187-1.269-1.673-2.71-2.033-2.854-.215.633-.512 2.282-.584 2.57-.157.47-.574 1.246-1.412 2.093-.312.314-.86.638-1.415.877z" transform="translate(349.611 -118.977)" opacity=".91"/><radialGradient id="i" cx="104.523" cy="115.83" r="26.938" gradientUnits="userSpaceOnUse" transform="translate(349.611 -118.977)"><stop offset="0" style="stop-color:#110808;stop-opacity:0"/><stop offset=".633" style="stop-color:#110808;stop-opacity:0"/><stop offset=".934" style="stop-color:#110808"/></radialGradient><path class="highlight" fill="url(#i)" d="M96.54 104.014c.25-.14.498-.282.745-.414.595-.318 1.203-.603 1.799-.911-1.621-2.254-2.517-3.537-2.002-5.225.334-1.098 1.127-2.393 2.183-2.594.167-.032.29-.04.37-.002-1.102-1.363-4.703-.717-5.424 2.674-.001.042-.008.085-.008.127.013 1.81.664 3.247 1.52 4.893.253.485.558 1.002.817 1.452z" transform="translate(349.611 -118.977)" opacity=".91"/><radialGradient id="j" cx="110.977" cy="100.521" r="32.936" gradientUnits="userSpaceOnUse" transform="translate(349.611 -118.977)"><stop offset="0" style="stop-color:#110808;stop-opacity:0"/><stop offset=".633" style="stop-color:#110808;stop-opacity:0"/><stop offset=".942" style="stop-color:#110808"/></radialGradient><path class="highlight" fill="url(#j)" d="M93.858 116.19c-.738.341-1.549.49-2.586.561-1.8.145-2.563-.427-2.597-.942-.142-2.126 3.452-4.587 4.38-5.332 1.744-1.396 3.45-2.294 4.874-3.025-.184-.646-.456-1.403-.828-2.334-2.1 1.126-4.408 2.572-5.455 3.065-.36.144-.432.504-.648.504-.216 0-.432.144-.576.288-.36.36-.94.679-2.435 2.145-1.149 1.127-1.75 2.2-2.032 3.212-.434 3.375 4.264 4.121 7.903 1.858z" transform="translate(349.611 -118.977)" opacity=".91"/><linearGradient id="k" gradientUnits="userSpaceOnUse" x1="95.485" y1="98.896" x2="103.077" y2="111.814"><stop offset=".069" style="stop-color:#110808;stop-opacity:0"/><stop offset=".193" style="stop-color:#110808;stop-opacity:.2915"/><stop offset=".388" style="stop-color:#110808;stop-opacity:.75005"/><stop offset=".495" style="stop-color:#110808"/><stop offset=".576" style="stop-color:#110808;stop-opacity:.83916"/><stop offset=".7" style="stop-color:#110808;stop-opacity:.59488"/><stop offset=".834" style="stop-color:#110808;stop-opacity:.32822"/><stop offset="1" style="stop-color:#110808;stop-opacity:0"/></linearGradient><path class="highlight" fill="url(#k)" d="M99.671 103.507c-1.793-2.515-2.89-3.883-2.673-5.508-.875-.39-1.818-.671-2.745-.945-.03.206-.051.411-.05.615.013 1.81.664 3.247 1.52 4.893.464.89 1.121 1.913 1.304 2.366l.075.192a64.37 64.37 0 0 1 2.754-1.348c-.062-.089-.12-.175-.185-.265z" transform="translate(349.611 -118.977)" opacity=".91"/><linearGradient id="l" gradientUnits="userSpaceOnUse" x1="93.388" y1="100.128" x2="100.862" y2="112.846"><stop offset=".069" style="stop-color:#110808;stop-opacity:0"/><stop offset=".215" style="stop-color:#110808;stop-opacity:.32045"/><stop offset=".338" style="stop-color:#110808;stop-opacity:.59221"/><stop offset=".454" style="stop-color:#110808;stop-opacity:.84531"/><stop offset=".524" style="stop-color:#110808"/><stop offset=".668" style="stop-color:#110808;stop-opacity:.67358"/><stop offset=".843" style="stop-color:#110808;stop-opacity:.27812"/><stop offset=".966" style="stop-color:#110808;stop-opacity:0"/></linearGradient><path class="highlight" fill="url(#l)" d="M98.2 110.185c-.167 1.171-.674 2.272-1.436 3.332.473.578.86 1.228 1.377 1.778.675.717 1.44 1.373 2.168 2.04.137-.104.28-.198.411-.309.144-.072.216-.288.36-.433.072-.07.216 0 .288-.07.072-.073.072-.218.144-.361.072-.073.216-.145.288-.216.072-.145.072-.217.144-.36.072-.073.216-.144.288-.216.216-.288 1.225-1.872 1.08-3.889-.11-1.725-.609-3.105-1.527-4.707-.01-.017-.246-.426-.635-1.048-1.228.678-2.367 1.3-3.217 1.743.305 1.08.372 1.87.267 2.716z" transform="translate(349.611 -118.977)" opacity=".91"/></g><g aria-label="t" transform="matrix(1.82 0 0 1.82 -421.93 404.99)"><path class="c1" d="M459.131-.43c.216.145.432.217.649.289.07.145.07.145.288.216.647.144 1.08.216 1.727.216 1.152 0 2.75-.09 4.895-1.976.259-.227.515-.457.767-.693.103-.096.179-.199.27-.302.115-.133.277-.242.412-.354.195-.157.413-.327.574-.522a.581.581 0 0 0 .146-.327.502.502 0 0 0 .213-.033c.174-.069.248-.25.336-.397.104-.176.26-.14.385-.288.252-.293 2.484-2.564 2.732-4.108.099-.619-.174-1.657-1.34-1.934-.271.721-1.79 3.108-4.011 5.155-2.113 1.946-3.611 3.008-4.65 3.008-.755 0-1.136-1.697-.822-3.95.602-4.32 3.124-10.665 5.1-14.732a.088.088 0 0 1 .012-.072c.04-.062.077-.127.115-.19.187-.382.36-.742.525-1.086a41.46 41.46 0 0 0 3.642.188c.783.006 1.487-.03 1.933-.14 1.44-.361 1.944-1.657 1.872-2.809-.073-1.008-.504-2.232-1.945-2.736-.431-.144-1.08-.144-1.152.144-.071.216.145.504 0 .792-.072.145-.455.235-.945.28-.263.023-.836.002-1.56-.042.525-1.503.56-2.177.56-2.686.073-.792-.215-1.657-.647-2.233-1.08-1.368-2.376-2.232-3.312-2.448-.865-.216-1.224 0-1.296.216 0 .144.143.216.36.648.36.72-.217 2.16-.505 2.808-.408 1.091-.815 2.167-1.216 3.213-.542-.042-.94-.068-1.085-.063-.756.025-1.708.121-2.45.307-2.593.72-3.313 1.368-3.96 2.16-.577.648-.794 1.44-.505 1.656.288.144.72-.072 1.728-.216 1.789-.123 3.364.07 4.278.128.132.014.266.033.398.05a88.32 88.32 0 0 1-.628 1.484c-2.27 5.21-4.043 8.719-4.336 12.235-.144 1.512-.288 2.953.216 4.393h.072c.144.071.144.144.216.36v.287c-.216-.07-.144-.359-.216-.503h-.072c-.144.215.072.864.216 1.152.072.288.144.647.36.935l.072.145h.144c.072 0 .072 0 .144.143.144.145.288.217.36.289.072 0 .216.072.144.144 0 .07-.267.005-.35 0 .02.046.062.216.062.216 0 .072.145.143.145.216.07.144.07.216.215.288.072.072.216.144.36.288.36.36-.144.648.36.792zm.432-.287a.396.396 0 0 1 .217.36c-.145-.072-.36-.216-.217-.36zm-.216-.288c-.071-.144-.288-.216-.288-.432.144.072.36.144.288.432zm-.792-.72v-.145c.144 0 .144.145.144.217-.072 0-.144-.072-.144-.072z" fill="#b51b15"/><linearGradient id="m" gradientUnits="userSpaceOnUse" x1="102.454" y1="86.057" x2="99.437" y2="101.769"><stop offset=".096" style="stop-color:#110808;stop-opacity:0"/><stop offset=".189" style="stop-color:#110808;stop-opacity:.27558"/><stop offset=".314" style="stop-color:#110808;stop-opacity:.64595"/><stop offset=".434" style="stop-color:#110808"/><stop offset=".445" style="stop-color:#110808"/><stop offset=".565" style="stop-color:#110808"/><stop offset=".635" style="stop-color:#110808;stop-opacity:.83916"/><stop offset=".741" style="stop-color:#110808;stop-opacity:.59488"/><stop offset=".857" style="stop-color:#110808;stop-opacity:.32822"/><stop offset="1" style="stop-color:#110808;stop-opacity:0"/></linearGradient><path class="highlight" fill="url(#m)" d="M98.231 91.652c1.536.119 4.27.373 6.056.482.525-1.503.561-2.177.561-2.687.072-.792-.216-1.656-.647-2.232-1.08-1.368-2.376-2.232-3.313-2.448-.864-.216-1.223 0-1.296.216 0 .144.144.216.36.648.36.72-.216 2.16-.504 2.808-.409 1.091-.815 2.167-1.217 3.213z" transform="translate(365.012 -118.967)" opacity=".91"/><linearGradient id="n" gradientUnits="userSpaceOnUse" x1="103.758" y1="87.933" x2="101.002" y2="102.286"><stop offset=".043" style="stop-color:#110808;stop-opacity:0"/><stop offset=".151" style="stop-color:#110808;stop-opacity:.27558"/><stop offset=".296" style="stop-color:#110808;stop-opacity:.64595"/><stop offset=".434" style="stop-color:#110808"/><stop offset=".441" style="stop-color:#110808"/><stop offset=".519" style="stop-color:#110808"/><stop offset=".662" style="stop-color:#110808;stop-opacity:.70229"/><stop offset=".864" style="stop-color:#110808;stop-opacity:.2824"/><stop offset="1" style="stop-color:#110808;stop-opacity:0"/></linearGradient><path class="highlight" fill="url(#n)" d="M106.174 108.323c-.272.722-1.79 3.11-4.012 5.156-2.113 1.946-3.61 3.008-4.649 3.008-.755 0-1.136-1.697-.823-3.95.603-4.32 3.125-10.665 5.1-14.732a.088.088 0 0 1 .013-.072c.04-.063.077-.127.115-.19.187-.382.36-.742.524-1.086-2.325-.22-4.098-.576-5.806-.784a88.32 88.32 0 0 1-.628 1.485c-2.27 5.21-4.043 8.719-4.337 12.235-.143 1.512-.288 2.952.216 4.393h.072c.144.071.144.143.216.36v.287c-.216-.071-.143-.36-.216-.504h-.072c-.143.216.072.865.216 1.153.072.288.145.647.36.935l.073.145h.143c.072 0 .072 0 .145.143.143.145.288.217.36.288.071 0 .216.073.144.145 0 .07-.267.005-.35 0 .019.046.062.216.062.216 0 .072.144.143.144.216.071.144.071.215.216.288.071.072.216.144.36.288.36.36-.144.648.36.792.215.144.431.216.648.288.071.144.071.144.288.216.648.144 1.08.215 1.728.215 1.152 0 2.75-.088 4.894-1.975.259-.227.515-.457.767-.693.103-.097.18-.199.27-.303.116-.132.277-.242.413-.353.195-.157.413-.328.574-.522a.581.581 0 0 0 .145-.327.502.502 0 0 0 .214-.033c.174-.069.247-.25.336-.397.104-.176.26-.14.385-.288.251-.293 2.484-2.564 2.731-4.109.1-.618-.173-1.656-1.339-1.934z" transform="translate(365.012 -118.967)" opacity=".91"/><radialGradient id="o" cx="113.418" cy="93.021" r="37.673" gradientUnits="userSpaceOnUse" transform="translate(365.012 -118.967)"><stop offset="0" style="stop-color:#110808;stop-opacity:0"/><stop offset=".544" style="stop-color:#110808;stop-opacity:0"/><stop offset=".884" style="stop-color:#110808"/></radialGradient><path class="highlight" fill="url(#o)" d="M96.69 112.538c.444-3.184 1.93-7.461 3.472-11.122a32.772 32.772 0 0 1-1.547-1.092c-.92-.696-2.14-1.292-3.096-2.056-2.03 4.6-3.576 7.869-3.848 11.125a26.35 26.35 0 0 0-.13 1.808c.859 6.722 5.363 6.75 8.398 4.154-.999.738-1.798 1.132-2.426 1.132-.755 0-1.136-1.697-.823-3.95z" transform="translate(365.012 -118.967)" opacity=".91"/><radialGradient id="p" cx="98.423" cy="79.982" r="25.655" gradientUnits="userSpaceOnUse" transform="translate(365.012 -118.967)"><stop offset="0" style="stop-color:#110808;stop-opacity:0"/><stop offset=".516" style="stop-color:#110808;stop-opacity:0"/><stop offset=".724" style="stop-color:#110808"/></radialGradient><path class="highlight" fill="url(#p)" d="M108.085 94.875c1.023-1.22 1.069-4.01-1.296-3.708-.022.208.135.467.003.729-.072.145-.454.235-.945.28-.595.053-2.75-.117-4.774-.287-4.562-.265-6.262.169-8.175 1.025-1.458.652-2.793 2.457-2.313 2.826.286-.027.697-.147 1.374-.244 1.79-.124 3.365.07 4.278.128.8.085 1.608.21 2.466.344 5.602.477 8.026.523 9.382-1.093z" transform="translate(365.012 -118.967)" opacity=".91"/><linearGradient id="q" gradientUnits="userSpaceOnUse" x1="109.289" y1="99.32" x2="94.687" y2="117.044"><stop offset=".21" style="stop-color:#110808"/><stop offset=".435" style="stop-color:#110808;stop-opacity:.68377"/><stop offset=".922" style="stop-color:#110808;stop-opacity:0"/></linearGradient><path class="highlight" fill="url(#q)" d="M106.174 108.323c-.272.722-1.79 3.11-4.012 5.156-.835.769-1.57 1.394-2.223 1.876-3.035 2.596-7.54 2.568-8.397-4.154-.022.872.046 1.728.345 2.585h.072c.144.071.144.143.216.36v.287c-.216-.071-.143-.36-.216-.504h-.072c-.143.216.072.865.216 1.153.072.288.144.647.36.935l.073.145h.143c.072 0 .072 0 .145.143.143.145.288.217.36.288.071 0 .216.073.144.145 0 .07-.267.005-.35 0 .019.046.061.216.061.216 0 .072.145.143.145.216.071.144.071.215.216.288.071.072.216.144.36.288.36.36-.144.648.36.792.215.144.431.216.648.288.071.144.071.144.288.216.648.144 1.08.215 1.728.215 1.152 0 2.75-.088 4.894-1.975.259-.227.515-.457.767-.693.103-.097.18-.199.27-.303.116-.132.277-.242.413-.353.195-.157.413-.328.574-.522a.581.581 0 0 0 .145-.327.502.502 0 0 0 .214-.033c.174-.069.247-.25.336-.397.104-.176.26-.14.385-.288.251-.293 2.484-2.564 2.731-4.109.1-.618-.173-1.656-1.339-1.934zm-12.63 8.919v-.145c.144 0 .144.145.144.217-.072 0-.145-.072-.145-.072zm.791.72c-.07-.144-.288-.216-.288-.432.145.072.36.143.288.432zm.216.288a.396.396 0 0 1 .217.36c-.145-.072-.36-.216-.217-.36z" transform="translate(365.012 -118.967)" opacity=".91"/></g><g aria-label="W" transform="matrix(1.82 0 0 1.82 -421.93 404.99)"><path class="c1" d="M474.554-18.009c.288-.072.648-.36.648-.647 0-.144-.289-.288-.505-.576-.308-.5-.33-1.313-.189-2.13.229-1.312.872-2.723 1.37-3.53.072-.144.143-.36.143-.503a.978.978 0 0 0 .288-.217c1.802-2.663 3.513-4.94 6.126-6.838 2.202-1.599 4.842-2.861 7.03-3.21-2.054 2.684-4.016 5.966-5.04 7.574-.073.072-.144.288-.216.36-.073.144-.144.072-.216.144v.144c-.145.216-.288.504-.433.72-.144.36-.432.647-.648 1.008l-.216.431c-.072.144-.217.216-.288.36-2.81 5.327-4.972 11.157-4.54 17.204.288 2.375 1.153 4.75 2.594 6.478.072.072.216 0 .216.144 0 .072 0 .216.072.216 0 .072.144 0 .144.072s0 .144.145.072c.071 0 .216.216.288.288.648.36 1.945.863 3.242.863 1.44 0 3.389-.82 4.748-2.425.078-.14.222-.135.228-.279.154-.282.448-.415.672-.623a38.97 38.97 0 0 0 3.039-3.84c.089.79.196 1.467.204 1.91.216-.142.216-.356.216-.57 0-.143-.144-.5 0-.57.072.142.144.356.217.57.07.143.216.285.216.499-.145-.071-.216-.071-.145.071 0 .072 0 .072.072.072 0 .142 0 .213.073.356.143.285.288.713.504.998 0-.071-.073-.214-.073-.357 0 .072.145.143.145.143 0 .072.071.143.071.214 0 .071 0 .285.073.356.144.072.144-.07.216 0l.144.215c.073.142.505.712.432.784-.143.07-.216-.214-.288-.285-.144-.143-.216-.072-.36-.143.072.214.289.641.505.784.143 0 .216-.071.288-.143.216 0 .216 0 .288.215.144 0 .072-.143.216-.143 0 0 .072.071.144.071v-.071c.072 0 .072.071.144.071.216.072.432.285.648.356.073.072.217.072.289.143.072 0 .217 0 .288.072.072.07.145.285 0 .213l-.432-.213c0-.072-.145-.143-.145 0 0 .07.145.142.217.142.144.071.289.143.36.214.072 0 .217 0 .288.071 0 .071-.071.071-.143.071h-.073l-.432-.213c-.072 0-.288-.214-.36-.214-.073 0-.073.071-.144.142-.145 0-.145-.142-.072-.213 0 0 .072 0 .143-.072-.143-.214-.504-.427-.72-.427.072.142.288.213.288.427v.285c0 .072.073.143.144.214.217.143.504 0 .649.143.072.071.072.143.144.214.072-.071.144-.071.217-.071.143.07.216.142.36.213.287.143 1.44.713 2.737.642 1.081 0 2.666-.428 3.459-1.14.145-.072.288-.072.433-.143.143-.072.143-.143.216-.285.072-.072.144-.072.144-.215 0-.142.505-.427.648-.499 1.514-1.354 2.73-3.278 2.945-3.777.217-.5.36-.998.217-.998-.072 0-.144.214-.144.214a.544.544 0 0 1-.144.356.542.542 0 0 1-.145.357c-.143.142-.143 0-.288-.072 0 .072 0 .357-.072.357s-.144 0-.144.071c.072.285-.144.143-.216.356 0 .072 0 .143-.072.214-.073.072-.144-.071-.144-.142.071-.214.216-.356.36-.499.144-.143.288-.5.433-.642.143-.142.288-.285.36-.427.072-.072.072-.215.144-.286.072-.071.216-.071.288-.142 0-.072.574-.642.719-1.284.143-.499.216-1.14.216-1.283 0-.071 0-.285-.073-.285-.072 0-.072.143-.072.214-.071.214-.071.713-.288.855-.144.072-.072.072-.144.143 0 .071-.072.143-.145.071 0-.071.073-.214.073-.214.144-.285.288-.499.36-.713 0-.07.289-.712.36-.712v.213c.072-.07.288-.499.288-.57.073-.642.36-1.426.433-2.139.072-.784.144-1.354.072-2.067-.144.285-.072.784-.072 1.14-.072.215 0 .357-.072.57-.072.143-.072.072-.072.286 0 .285-.289.713-.432.998-.144.214-.216.214-.216 0 .072-.214.432-.285.432-.5 0-.213 0-.498.072-.712.072-.285.144-.499.144-.784.072-.143 0-.143.072-.285 0-.285 0-.5-.072-.642.072-.071.36-.143.288-.356-.072-.285.217-.57.217-.784 0-.215-.145-.357-.145-.57s.145-.357.145-.571c.071-.214-.073-.856-.217-.856-.144 0 0 .214-.072.214-.144.071-.288-1.14-.216-1.354.216 0 .144.285.216.427.144.071-.216.357 0 .5.289.142.144-.856.289-.927-.145-.072-.073-.143-.073-.286 0-.07 0-.07-.072-.213-.144-.072.072-.143 0-.215 0-3.65-.442-7.322-2.12-11.295a18.921 18.921 0 0 0-1.209-2.294 16.171 16.171 0 0 1 1.358-2.964c.875-1.51 1.883-2.952 2.776-4.03.143-.072.287-.431.36-.648 0-.071.072-.215.144-.288.144-.215.432-.431.648-.647.288-.288.576-.576.937-.864.288-.216.648-.36 1.009-.576.216-.144.432-.432.648-.576l.216-.215c.289-.144.505-.36.72-.505 0 0-.143-.071-.215-.071-.073 0-.144 0-.216.071-.073 0-.073 0-.073.073-.072.071-.143.144-.216.144-.144.071-.216 0-.288.071-.288.144-.576.432-.865.648-.072.072-.216.144-.36.288a3.91 3.91 0 0 0-.648.504c-.145.072-.36.288-.504.288-.145.072-.433.144-.505.288-.072.144-.217.072-.288.144-.145.072-.217.216-.36.216-.217.072-.289.144-.361.36-.216.215-.432.647-.793.432.073-.073.504-.432.289-.576 0 .215-.216.072-.432.072.143-.144.216-.288.36-.36h.072c.072 0 .072-.144.215-.144.073 0 0 .072 0 .072.145.144.217 0 .361-.072.145-.072.72-.216.649-.432 0-.144-.577.36-.577.072 0-.072.073-.144.073-.216.36-.288.648-.576 1.008-.72.073 0 .073-.072.144-.072.072 0 .144-.072.216-.144.36-.36.721-.72 1.082-1.007-.073-.073-.073-.144 0-.217 0 0 .071-.071.143-.071.216-.144.505-.216.72-.36.145-.144.217-.288.433-.432.289-.144.505-.216.793-.36.072-.072.072-.288.288-.36.216.216.432-.216.648 0-.143 0-.216.072-.216.144.145 0 .216-.144.433-.144 0 .216-.145.216-.217.288-.143.144.072.216.145.072.072-.144.072-.216.216-.216.072 0 .072-.144.072-.216 0-.072.071-.072.144-.072.216-.072.288-.216.504-.216.145-.072.217 0 .217-.144 0-.072.071-.144.144-.144.143-.144.216-.144.432-.216.576-.072 1.08-.36 1.657-.575.288-.073.577-.073.792-.144l.65-.217c.215-.071.072-.215.288-.287h.576a.55.55 0 0 1 .36-.144c.144 0 .36.144.505.072v-.144h.288c.144-.072.36-.072.505-.072.143-.072.432.072.576-.072-.144-.288-.433-.36-.649-.36-.288.072-.504 0-.792 0h-.216a.219.219 0 0 0-.288 0c-.289 0-.577.072-.865.072-.145 0-.289.072-.432 0 0 0-.073-.072-.145-.072s-.216.072-.288.072l-.288-.072c.072 0 .504-.072.576-.072 0-.072.072 0 .145 0 0-.072.143-.072.216-.072.071-.072.288-.144.216-.216l-.72.144c-.938.144-1.587.432-2.38.792-.07 0-.143.072-.143.072-.144.144 0 .072.072.072.144.072.072.072.072.143.072.073.217 0 .288-.071.217-.072.504-.144.721-.288.144 0 .216 0 .289-.072.143 0 .143.072.07.144-.07.072-.143.072-.215.072-.216.072-.36.144-.577.215-.288.144-.576.288-.864.36-.144.072-.289.072-.36.145-.072 0-.216.071-.216.143s.648-.216.72-.216c0 .073-.072.073 0 .073s.216-.073.216-.073c.145-.071.216-.144.36-.144.217-.071.36-.215.577-.288.072-.071.216-.143.289-.071.07 0 .07.071.143.071s.145-.071.145-.071c.144 0 .144-.072.287-.144.072-.072.145-.072.217-.072.216-.072.36-.072.504-.072.073-.072.216-.072.216 0-.072.072-.216.072-.288.144-.072 0-.216 0-.36.072 0 .072-.072.072-.072.143h-.217l-.648.217c-.144.071-.288.144-.504.144-.36.215-.721.288-1.08.432-.29 0-.434.215-.722.215-.071 0-.216 0-.144-.144 0-.072.073-.072.144-.144.072-.071 0-.071-.071-.071-.073 0-.145.071-.217.071-.072 0-.072.072-.144.072-.145.072-.072 0-.216 0-.145 0-.072.072-.072.144s-.073.072-.073.144a.734.734 0 0 0-.216.072c.073.072.289 0 .289.144-.144.072-.36 0-.577 0-.216-.072-.288.072-.432.144-.144.144-.36.216-.504.288l-.433.216c-.072 0-.216.072-.216.144.072 0 .577-.144.36.072-.144.072-.216 0-.36.072l-.288.288-.432.216a7.832 7.832 0 0 0-.793.432c-.072.072-.144.288-.288.288-.072.071-.217.071-.36.144-.073.071-.073.144-.073.215 0 .144.072.217.072.288 0 .073 0 .144-.072.144-.072.073-.144 0-.144 0-.216 0-.432.144-.432.36-.289.072-.577.216-.864.36-.145.144-.36.504-.577.504.071-.072.071-.144 0-.144-.072 0-.288.144-.288.216-.073.072 0 .144-.073.216 0 .072-.072.072-.143.144-.072.072-.217.144-.288.288-.217.216-.433.432-.506.648-.071.071-.071.071-.071.144h-.145v-.144c.073-.144.216-.288.361-.432.072-.072.144-.144.144-.216 0 0 0-.072.072-.144 0-.072.072-.216.072-.288.289-.36.577-.648 1.009-.864h.072c.072-.072.144-.144.216-.144.145-.144.288-.287.504-.431 0-.073.073-.144.073-.144-.073-.073-.073-.073-.145-.073l-.071.073c-.073.071-.145.071-.145.071-.071 0-.071-.144 0-.144-.144-.071-.216.073-.288.144-.144.073-.289.144-.432.217-.216.143-.36.36-.504.503a5.002 5.002 0 0 0-.577.72c-.072.072-.288.144-.36.288 0 .144-.36.576-.505.72-.822 1.019-1.726 2.022-2.351 2.889-.397.55-1.9 2.754-2.217 3.683-.632.363-1.005 1.05-1.005 1.299.473.166 1.538 1.46 1.899 2.031 1.512 2.353 2.082 4.952 2.515 6.805.072.286-.072.5.072.713.144.214.216.57.216.785v.57c.072 0 .144.071.217.214.07.142.07.356.07.57 0 .214 0 .356.145.57.073.214-.072.428-.072.642.113 2.263.042 4.2-.09 5.772-.314 3.723-.851 6.49-2.679 9.242-1.395 2.103-3.223 3.576-4.933 3.576-1.342 0-3.488-.5-3.37-3.772.051-1.453.418-2.977.847-4.157.071-.214.144-.499.144-.712.216-.143.288-.357.36-.57.073-.215.073-.5.216-.571.144-.071.144-.286.216-.428.793-2.21 2.09-4.278 2.09-6.56 0-1.853-3.963-4.847-4.9-3.92-.144.142-.072.357-.144.927-.345 2.337-1.889 5.995-2.714 8.898-.005.015-.055.209-.123.507-1.683 3.913-6.192 10.317-8.57 10.317-4.324 0-2.888-9.088-1.735-10.888.072-.072 0-.144 0-.216.072 0 .144 0 .144-.072.072 0 .072-.216.072-.216 1.441-3.959 4.828-9.43 7.061-11.949l.433-.432c.072-.071.144-.215.216-.288 0-.071.144-.071.144-.071.072-.144-.071-.144.145-.216.143-.072.576-.792.792-.936 1.73-1.728 4.107-3.67 5.044-5.11.288-.649.217-1.152.072-1.728-.288-1.584-1.441-3.456-2.594-4.247-.252-.175-.635-.456-1.04-.6-.052-.021-.106-.037-.16-.055l-.005-.001c-.623-.2-1.384-.203-2.152-.122-3.795.398-9.52 3.384-12.28 5.96-.215.216-.504.216-.647.432-2.983 2.654-5.622 6.047-6.63 9.358-.288 1.007-.432 2.231-.144 3.239.432 1.656 1.37 2.663 2.739 2.447zm36.116 1.123c.144-.071.144.071.216.071.072.143-.36.071-.216-.071zm.144.784c0-.143-.144-.285-.072-.428.36.072.216.57.216.785-.072.285-.216.641-.144.926-.433-.142 0-.998 0-1.283zm-.216-3.35c.216 0 .36.284 0 .284v-.285zM508.222-6.55c.073-.071.144-.143.144-.214v-.214c.072-.07.072-.142.072-.142.145 0 .216.214.145.285 0 .142-.072.142-.145.214-.072.143-.288.642-.504.57-.072 0 .216-.427.288-.499zm-13.825 3.8c.072 0-.216-.432-.216-.576.288.216.36.576.504.936-.145-.144-.433-.144-.288-.36zm31.92-45.995c.073 0 .216 0 .289-.072.072-.288-.793-.144-.793-.288h.577c.288.072.504 0 .792 0 .144 0 .36.072.505.072h.432c.36.072.72.072 1.009.144.216 0 .504-.072.72.072.073 0 .073.072 0 .072-.143.072-.36 0-.432 0-.144-.072-.216-.072-.36-.144-.073 0-.289.072-.36.072-.145 0-.29-.072-.217.144l-.36-.072c-.072 0-.144.072-.216.072-.289.072-.432-.072-.72-.072.072.072.072.288-.073.288-.072 0-.144-.072-.072-.144h-.864c-.217 0-.433 0-.577-.072-.144 0-.144 0-.072-.072.145-.144.576-.072.792 0zm-3.603-.792c.289-.072 1.081-.288 1.802-.288.648-.072 1.009-.144 1.225-.072-.144 0 0 .072.072 0 .432-.144 1.153-.072 1.225-.072.144.072.36.072.865.144.504.072.792.072.792.216-.216.072-.648.072-.864.072-.144-.072-.217-.072-.36 0-.145 0-.289-.072-.361 0 .072.144.433.072.504.144.145 0 .289.144.36.216h-.431c-.072-.072-.217-.072-.288-.072h-.217c-.072 0-.432-.072-.288-.144-.072-.072-.217-.072-.36-.072h-.433c-.144 0-.144.216-.216.144-.071 0-.144 0-.144-.072h-.937c-.071 0-.576.144-.576 0 0-.072.36-.072.432-.144.073-.216-.216-.072-.288-.072-.216 0-.504.072-.72.144-.072 0-.217.072-.217 0 0 0-.071 0-.144-.072-.072-.072-.504.144-.433 0zm-7.205 2.807c-.072.072-.36.144-.36.144.072-.288.504-.432.72-.576.433-.144.793-.36 1.153-.504.072-.072.217-.072.288-.143.145-.073.36-.217.504-.217.073 0 .145 0 .217-.071h.072c.144-.144.433-.144.649-.144.072 0 .216-.073.288 0-.216.071-.36.144-.577.215-.072 0-.143.073-.288.073-.072 0-.216.071-.288.071-.216.073-.432.144-.577.288 0 .072 0 .072-.071.072-.072.072-.217.072-.288.144a.541.541 0 0 0-.289.144c-.072 0-.144.072-.216.072 0 .072.216.072.216.144-.072 0-.144 0-.216.072-.144 0-.217-.072-.288-.072-.072.072-.145.072-.145.072-.072 0-.072-.072-.072-.072-.071 0-.144.144-.216.216-.072.072-.144.072-.216.072zm-3.242 2.52c.216-.36.649-.504.72-.936.288-.216.721-.288.721-.648.288.144.504-.216.793-.288.071.144-.289.216-.433.288-.072.072-.072.216-.144.288-.145.072-.288.216-.433.288-.432.36-.648.863-1.224 1.007zm9.511-3.024c-.072.072-.288.144-.216.072 0-.072.072-.144.144-.144h.072c0-.072.072-.072.144-.144.072 0 .144-.072.217-.072 0 0 .071-.072.143-.072.144-.072.289 0 .432-.072.145 0 .433-.072.506-.216.07-.071-.073-.071-.145-.071-.144 0-.288.144-.504.071-.073 0-.073 0 0-.071.072-.073.288-.073.36-.073.144-.071.289-.071.505-.071.143.071.431-.073.647-.073-.07.217.289 0 .361 0 .145 0 .937-.071.937.073 0 .071-.288 0-.288 0-.145.144.144.144.216.144.144-.073.792 0 .936-.073 0 .217-1.08.217-1.224.217-.289 0-1.37.144-1.801.215h-.289c-.144.072-.36.072-.576.144a.545.545 0 0 1-.289.144c-.072 0-.216.072-.288.072zm-1.225.576c-.072.072-.216.072-.36.144-.072 0-.145.072-.216.144-.072.072-.217.072-.288.072a4.889 4.889 0 0 0-.577.216c-.217.144-.433.288-.649.36l-.216.216c0 .072-.072.072-.072.072-.072-.072 0-.144.072-.216.073 0 .216 0 .144-.144-.144-.072-.504.36-.577.432-.143.072-.216.144-.36.216h-.215c-.072 0-.217.144-.288.144-.073-.072.07-.216.143-.216.216-.144.433-.216.65-.36.07 0 .143-.072.215-.072a.544.544 0 0 0 .144-.288c.144-.072.217-.144.36-.216 0-.072 0 0 .073-.072l.072-.072h.144c.072.072.143 0 .216-.072.072-.144 0-.144.072-.288.072-.072.288-.216.432-.288.144 0 .288-.072.36-.072.145.216-.504.288-.576.504-.072.144.216 0 .288 0 .072-.072.433-.36.433-.216.071.072-.072.144.071.216.145 0 .289-.216.361-.216.144-.072.36-.144.504-.144-.072 0-.143.072-.143.072-.073.072-.145.144-.217.144zm8.791-2.735c.216 0 .432 0 .649.072.144.072.36.072.432.216.072.144-.073.072-.144.144.216.144.504.072.648.288.072.072.145.144.288.144.073.072.145.072.216.072 0 0 0-.072-.071-.072 0-.072-.072-.144-.145-.216h.289l.432.216c.217.072.505.144.72.288v-.144c0 .071.073.071.073.071.216.073.216.217.36.288.072.073.216.144.36.217.073.071.432.647.073.575-.217-.072-.433-.287-.65-.504-.072-.071-.215-.288-.36-.215-.071.071-.144.071-.288 0-.144 0-.432-.217-.577-.144-.216.144.289.288.36.36.073.216.434.143.434.431-.36-.144-.505-.432-.865-.36-.36 0-.865-.36-1.225-.504-.144 0-.289-.144-.432-.071-.073 0-.289-.073-.289-.144-.144-.144-.216-.072-.36-.072s0-.144-.072-.144-.072.072-.144.072c-.073 0-.073 0-.144-.072-.145 0-.288.144-.433.144-.216 0-.648-.144-.865.072.145 0 .289.36.433.144.072-.073.072-.144.144-.144 0 .071 0 .144-.072.215.432-.144.793-.071 1.153 0 .144.073.36.073.504.073.145-.073.288.144.433.215.216.073.865 0 .936.217.072.215.577.144.577.431-.432.072-.865-.216-1.297-.287-.36-.144-.937-.144-1.153-.432h-.72c-.145 0-.289-.073-.505 0-.36.144-.865 0-1.225-.073.072.217-.289.073-.289.288.361 0 1.154 0 2.018.073.505.071 1.154.144 2.09.432.288.071.504.36.792.431.145.072.65.216.793.144.072-.072-.144-.216.217-.144.216.072.432.216.504.504-.288 0-.36-.216-.649-.216 0 .288.36.432.577.288.216-.216.504.216.288.432.216-.072.216.288.36.432.144.072.289.144.36.216.937.864.433 3.095.65 3.095.143 0 .215-.144.287-.216.144-.072.216.072.289-.072.432-.864.792-2.592-.433-4.39-.071-.217-.36-.289-.432-.433-.145-.215-.216-.36-.36-.503-.36-.36-.72-.72-1.153-1.008-.072-.072-.217-.144-.36-.216 0 0-.073 0-.145-.072 0 .288-.288-.072-.36-.144-.504-.288-1.153-.432-1.657-.504-.072.144-.577-.144-.721-.144-.216 0-.648.072-.648.216-.073 0-.289.144-.433.144 0 .216.793-.072.937 0zm3.315 2.231c.072-.216.288.072.288.216-.145 0-.145-.216-.288-.216zm.36.36c0-.216.288-.144.288.072-.072.288-.289-.072-.289-.072zm1.297 1.152c0 .144 0 .216.072.288l.216.431c-.072.073-.072-.071-.144-.143-.144.072.072.216.072.36-.288-.144-.288-.504-.504-.72-.072-.072-.145-.144-.288-.072-.145 0-.145-.144 0-.216-.145-.216-.216-.432-.433-.504.072-.36.649.36.72.504.145.144.145.144.29.072zm-.217-1.44c-.071.216-.287 0-.287 0 0-.144.216 0 .287 0zm-12.97-.288c-.143 0-.288 0-.432.072-.072 0-.144.144-.216.144-.144-.072.072-.144.144-.216.072 0 .288-.072.433-.144-.072-.072-.145-.072-.072-.072.072-.071.216-.071.288-.144.144 0 .288-.071.432-.071.072.071.072.071.144.071s.072-.071.144-.071h.145c.071-.073.216-.073.287-.073 0 .073-.216.144-.287.144-.289.144-.65.216-1.01.36zm-5.188 2.016s.577-.216.721-.144c-.072.072-.216.216-.433.288-.143 0-.288.072-.432.144-.072.072-.216.287-.288.36-.143.144-.288.288-.432.36-.144.143-.36.287-.505.431a.542.542 0 0 1-.287.144c-.073 0-.217-.071-.289 0-.144.072-.144.216-.144.36-.073.216-.216.288-.36.432-.217.072-.433.216-.649.288-.072.072-.216.216-.36.216.072-.144.216-.216.288-.288.145-.072.145-.144.216-.216.072 0 .072.072.145 0v-.072c.143-.072.288-.576.431-.648.145-.143.216-.216.361-.36.072-.144.216-.144.288-.215.073 0 .073-.073.144-.073.072-.071.145 0 .216-.071.072 0 .072-.073.072-.144.073-.144.216-.217.36-.288.217-.073.217-.073.29-.216.072-.144.072-.072.215-.144.216-.072.432-.432.72-.432.073.144-.36.216-.288.288z" fill="#b51b15"/><linearGradient id="r" gradientUnits="userSpaceOnUse" x1="94.199" y1="77.345" x2="63.286" y2="100.9"><stop offset=".054" style="stop-color:#110808"/><stop offset=".759" style="stop-color:#110808;stop-opacity:0"/></linearGradient><path class="highlight" fill="url(#r)" d="M78.848 86.56c2.203-1.6 4.843-2.862 7.03-3.21 1.15-1.504 2.33-2.821 3.388-3.546.254-.174.537-.186.815-.118-.622-.199-1.383-.202-2.15-.122-3.796.398-9.521 3.385-12.28 5.96-.217.217-.505.217-.648.433-2.983 2.653-5.622 6.046-6.63 9.357-.288 1.008-.432 2.232-.144 3.24.432 1.655 1.37 2.663 2.739 2.447.288-.072.647-.36.647-.648 0-.144-.288-.288-.504-.576-.308-.5-.33-1.312-.189-2.13.229-1.312.872-2.723 1.37-3.53.071-.143.143-.36.143-.503a.978.978 0 0 0 .288-.216c1.802-2.663 3.513-4.941 6.125-6.838z" transform="translate(403.586 -119.01)" opacity=".91"/><linearGradient id="s" gradientUnits="userSpaceOnUse" x1="90.316" y1="79.724" x2="90.017" y2="79.705"><stop offset=".21" style="stop-color:#110808"/><stop offset=".435" style="stop-color:#110808;stop-opacity:.68377"/><stop offset=".922" style="stop-color:#110808;stop-opacity:0"/></linearGradient><path class="highlight" fill="url(#s)" d="M90.088 79.688c.053.013.105.035.158.054-.051-.02-.105-.037-.158-.054z" transform="translate(403.586 -119.01)" opacity=".91"/><linearGradient id="t" gradientUnits="userSpaceOnUse" x1="99.047" y1="99.044" x2="126.871" y2="67.591"><stop offset=".24" style="stop-color:#110808"/><stop offset=".573" style="stop-color:#110808;stop-opacity:.39103"/><stop offset=".788" style="stop-color:#110808;stop-opacity:0"/></linearGradient><path class="highlight" fill="url(#t)" d="m124.893 70.337-.36-.072c-.072 0-.144.072-.217.072-.288.072-.431-.072-.72-.072.073.072.073.288-.072.288-.072 0-.144-.072-.072-.144h-.864c-.217 0-.433 0-.577-.072-.145 0-.145 0-.072-.072.144-.144.576-.072.792 0 .073 0 .216 0 .289-.072.072-.288-.793-.144-.793-.288h.577c.288.072.504 0 .792 0 .144 0 .36.072.504.072h.432c.361.072.722.072 1.01.144.216 0 .504-.072.72.072.072 0 .072.072 0 .072-.144.072-.36 0-.432 0-.144-.072-.216-.072-.36-.144-.073 0-.289.072-.361.072-.144 0-.288-.072-.216.144zm-5.332-.864a.223.223 0 0 0 .144.072c0 .072.144 0 .217 0 .216-.072.504-.144.72-.144.072 0 .36-.144.288.072-.072.072-.433.072-.433.144 0 .144.506 0 .577 0h.937c0 .072.072.072.144.072.072.072.072-.144.216-.144h.433c.143 0 .288 0 .36.072-.144.072.216.144.288.144h.217c.07 0 .215 0 .288.072h.432c-.073-.072-.216-.216-.36-.216-.072-.072-.433 0-.505-.144.072-.072.216 0 .36 0 .144-.072.216-.072.361 0 .216 0 .648 0 .864-.072 0-.144-.288-.144-.793-.216-.504-.072-.72-.072-.864-.144-.072 0-.793-.072-1.225.072-.072.072-.216 0-.072 0-.216-.072-.577 0-1.225.072-.72 0-1.513.216-1.802.288-.071.144.36-.072.433 0zm-7.422 2.735c.072-.071.145-.215.216-.215 0 0 0 .071.072.071 0 0 .073 0 .145-.071.071 0 .144.071.288.071.072-.071.144-.071.216-.071 0-.073-.216-.073-.216-.144.072 0 .144-.072.216-.072a.542.542 0 0 1 .289-.144c.07-.072.215-.072.288-.144.071 0 .071 0 .071-.072.145-.144.36-.216.577-.288.072 0 .216-.072.288-.072.145 0 .216-.072.288-.072.216-.072.36-.144.577-.216-.072-.072-.216 0-.288 0-.216 0-.505 0-.65.144h-.07c-.073.072-.145.072-.218.072-.143 0-.36.144-.504.216-.071.072-.216.072-.288.144-.36.144-.72.36-1.152.504-.217.144-.65.288-.722.576 0 0 .289-.073.361-.144.072 0 .144 0 .216-.073zm-2.234 1.584c.145-.072.288-.216.433-.288.072-.072.072-.216.144-.288.144-.072.504-.144.433-.288-.289.072-.505.432-.793.288 0 .36-.433.432-.721.648-.072.432-.504.576-.72.936.576-.144.792-.648 1.224-1.008zm11.602-2.88s.288.073.288 0c0-.143-.792-.071-.937-.071-.072 0-.432.216-.36 0-.217 0-.505.144-.649.072-.215 0-.36 0-.504.072-.072 0-.288 0-.36.072-.073.072-.073.072 0 .072.216.072.36-.072.504-.072.072 0 .216 0 .145.072-.073.144-.361.216-.506.216-.143.072-.288 0-.432.072-.072 0-.143.072-.143.072-.073 0-.145.072-.217.072-.072.072-.144.072-.144.144h-.072c-.073 0-.144.072-.144.144-.072.071.144 0 .216-.072.072 0 .216-.072.288-.072a.545.545 0 0 0 .289-.144c.216-.072.432-.072.576-.144h.289c.431-.072 1.512-.216 1.8-.216.144 0 1.225 0 1.225-.216-.144.072-.792 0-.936.072-.072 0-.36 0-.216-.144zm-5.045 1.584c-.143-.071 0-.144-.071-.215 0-.144-.36.144-.433.215-.072 0-.36.144-.288 0 .072-.215.721-.288.576-.503-.072 0-.216.071-.36.071-.144.073-.36.217-.432.288-.072.144 0 .144-.072.288-.073.073-.144.144-.216.073h-.144l-.072.071c-.073.073-.073 0-.073.073-.143.071-.216.143-.36.215a.545.545 0 0 1-.144.288c-.072 0-.145.072-.216.072-.216.144-.433.216-.649.36-.072 0-.216.144-.143.216.07 0 .215-.144.288-.144h.216c.143-.072.216-.144.36-.216.072-.072.432-.504.576-.432.072.144-.071.144-.144.144-.072.072-.144.144-.072.216 0 0 .072 0 .072-.072l.216-.216c.216-.072.432-.216.65-.36.143-.071.359-.144.576-.215.071 0 .216 0 .288-.073.071-.071.144-.144.216-.144.144-.071.288-.071.36-.144.072 0 .144-.071.217-.144 0 0 .07-.071.143-.071-.143 0-.36.071-.504.144-.072 0-.216.215-.36.215zm15.06 4.175c-.072.144-.144 0-.288.072-.072.072-.144.216-.288.216-.216 0 .288-2.231-.649-3.095-.071-.072-.216-.144-.36-.216-.144-.144-.144-.504-.36-.432.216-.216-.072-.647-.288-.432-.216.144-.577 0-.577-.288.288 0 .36.217.649.217-.072-.288-.288-.432-.504-.505-.36-.071-.145.073-.217.144-.144.073-.648-.071-.793-.144-.288-.071-.504-.36-.792-.431-.936-.288-1.585-.36-2.09-.432-.864-.072-1.657-.072-2.018-.072 0-.216.361-.072.289-.288.36.072.864.216 1.225.072.216-.072.36 0 .504 0h.72c.217.288.793.288 1.154.432.432.072.865.36 1.297.288 0-.288-.505-.216-.577-.432-.071-.216-.72-.144-.936-.216-.145-.072-.289-.288-.433-.216-.144 0-.36 0-.504-.072-.36-.072-.72-.144-1.154 0 .073-.072.073-.144.073-.216-.073 0-.073.072-.144.144-.145.216-.288-.144-.433-.144.217-.216.65-.072.865-.072.145 0 .288-.144.433-.144.071.072.071.072.144.072.072 0 .072-.072.144-.072s-.072.144.072.144.216-.072.36.072c0 .072.216.144.288.144.144-.072.289.072.432.072.361.144.865.504 1.226.504.36-.072.504.216.865.36 0-.288-.36-.216-.433-.432-.073-.072-.577-.216-.36-.36.144-.072.432.144.576.144.144.072.217.072.288 0 .145-.072.288.144.36.216.217.216.433.432.65.504.36.072 0-.504-.073-.576-.144-.072-.288-.144-.36-.216-.144-.072-.144-.216-.36-.288 0 0-.072 0-.072-.072v.144c-.216-.144-.505-.216-.722-.288l-.431-.216h-.289c.073.072.145.144.145.216.071 0 .071.072.071.072-.071 0-.143 0-.216-.072-.143 0-.216-.072-.288-.144-.144-.216-.432-.144-.648-.288.071-.072.216 0 .144-.144-.073-.144-.289-.144-.432-.216-.217-.072-.433-.072-.65-.072-.143-.072-.936.216-.936 0 .144 0 .36-.144.433-.144 0-.144.432-.216.648-.216.144 0 .648.288.72.144.505.072 1.154.216 1.658.504.071.072.36.432.36.144a.224.224 0 0 0 .144.072c.144.072.289.144.361.216.432.288.793.648 1.152 1.008.145.144.216.288.36.504.073.144.361.215.433.432 1.225 1.799.865 3.527.433 4.39zm-2.161-4.607c0-.144-.216-.431-.288-.215.143 0 .143.215.288.215zm.865-.144s.216.217.287 0c-.071 0-.287-.143-.287 0zm-.505.36c0-.216-.289-.287-.289-.072 0 0 .217.36.289.073zm1.297 1.8-.217-.432c-.07-.072-.07-.144-.07-.288-.146.072-.146.072-.29-.072-.071-.144-.648-.863-.72-.504.217.073.288.288.433.504-.145.072-.145.216 0 .216.143-.072.215 0 .288.072.216.216.216.576.504.72 0-.144-.216-.288-.072-.36.072.072.072.216.144.144zm-14.123-2.231c.072 0 .144-.144.216-.144.144-.072.289-.072.432-.072.36-.144.721-.216 1.01-.36.071 0 .287-.072.287-.144-.071 0-.216 0-.287.072h-.145c-.072 0-.072.072-.144.072s-.072 0-.144-.072c-.144 0-.289.072-.432.072-.073.072-.216.072-.288.144-.073 0 0 0 .072.072-.145.072-.36.144-.433.144-.072.072-.288.144-.144.216zm-4.252 1.511c-.288 0-.504.36-.72.432-.144.072-.144 0-.216.144-.072.144-.072.144-.288.216-.145.072-.288.144-.36.288 0 .072 0 .144-.073.144-.071.072-.144 0-.216.072-.071 0-.071.072-.144.072-.072.072-.216.072-.288.216l-.36.36c-.144.072-.289.575-.433.648v.071c-.072.073-.072 0-.144 0-.072.073-.072.144-.216.217-.072.071-.216.144-.288.287.144 0 .288-.143.36-.216.216-.071.432-.215.648-.288.145-.144.288-.215.36-.432 0-.144 0-.288.145-.36.072-.071.216 0 .289 0a.542.542 0 0 0 .287-.143c.145-.144.36-.288.505-.432.144-.072.288-.216.432-.36.072-.072.216-.288.288-.36.144-.072.289-.144.432-.144.217-.072.36-.216.433-.288-.144-.072-.721.144-.721.144-.071-.072.36-.144.288-.288zm8.503-3.527c-.288.072-.504 0-.792 0h-.216a.219.219 0 0 0-.289 0c-.288 0-.576.072-.864.072-.145 0-.289.072-.432 0 0 0-.073-.072-.145-.072s-.216.072-.288.072l-.289-.072c.073 0 .505-.072.577-.072 0-.072.072 0 .145 0 0-.072.143-.072.216-.072.071-.072.288-.144.216-.216l-.72.144c-.938.144-1.587.432-2.38.792-.07 0-.143.072-.143.072-.145.144 0 .072.072.072.144.072.072.072.072.144.072.072.217 0 .288-.072.217-.072.504-.144.721-.288.144 0 .216 0 .289-.072.143 0 .143.072.07.144-.07.072-.143.072-.215.072-.216.072-.36.144-.577.216-.288.144-.576.288-.865.36-.143.072-.288.072-.36.144-.071 0-.215.072-.215.144s.648-.216.72-.216c0 .072-.072.072 0 .072s.216-.072.216-.072c.145-.072.216-.144.36-.144.217-.072.36-.216.577-.288.072-.072.216-.144.289-.072.07 0 .07.072.143.072.073 0 .145-.072.145-.072.143 0 .143-.072.287-.144.072-.072.145-.072.217-.072.216-.072.36-.072.504-.072.073-.072.216-.072.216 0-.072.072-.216.072-.288.144-.072 0-.216 0-.36.072 0 .072-.072.072-.072.144h-.217l-.648.216c-.144.072-.288.144-.504.144-.36.216-.721.288-1.08.432-.29 0-.434.216-.722.216-.071 0-.216 0-.144-.144 0-.072.073-.072.144-.144.072-.072 0-.072-.071-.072-.073 0-.145.072-.217.072-.072 0-.072.072-.144.072-.145.072-.072 0-.216 0-.145 0-.072.072-.072.144s-.073.072-.073.144a.734.734 0 0 0-.216.072c.073.071.289 0 .289.144-.144.071-.36 0-.577 0-.216-.073-.288.071-.432.144-.144.144-.36.215-.504.288l-.433.215c-.072 0-.216.073-.216.144.072 0 .577-.144.36.073-.144.071-.216 0-.36.071l-.288.288-.432.216c-.288.144-.577.288-.793.432-.072.072-.144.288-.288.288-.072.072-.217.072-.36.144-.073.072-.073.144-.073.216 0 .144.072.216.072.288 0 .072 0 .144-.072.144-.072.072-.144 0-.144 0-.216 0-.432.144-.432.36-.289.072-.577.216-.864.36-.145.144-.36.503-.577.503.071-.071.071-.144 0-.144-.072 0-.288.144-.288.217-.073.071 0 .144-.073.215 0 .072-.072.072-.143.144-.072.072-.217.144-.288.288-.217.216-.433.432-.506.648-.071.072-.071.072-.071.144h-.145v-.144c.073-.144.216-.288.36-.432.073-.072.145-.144.145-.216 0 0 0-.072.072-.144 0-.072.072-.216.072-.288.289-.36.577-.647 1.009-.864h.072c.072-.071.144-.144.216-.144.145-.144.288-.287.504-.431 0-.072.073-.144.073-.144-.073-.072-.073-.072-.145-.072l-.071.072c-.073.072-.145.072-.145.072-.071 0-.071-.144 0-.144-.144-.072-.216.072-.288.144l-.432.216c-.216.143-.36.36-.504.504a5.001 5.001 0 0 0-.577.72c-.072.071-.288.143-.36.287 0 .144-.36.576-.505.72-.822 1.02-1.726 2.022-2.35 2.889-.398.551-1.901 2.755-2.218 3.684.277-.159.597-.261.966-.227.637.06 1.415 1.041 2.063 2.087a16.175 16.175 0 0 1 1.358-2.963c.875-1.51 1.883-2.953 2.776-4.03.143-.072.287-.432.36-.648 0-.072.072-.216.144-.288.144-.216.432-.432.648-.648.288-.288.576-.576.937-.863.288-.217.648-.36 1.009-.576.215-.144.432-.432.648-.576l.216-.216c.289-.144.505-.36.72-.504 0 0-.143-.072-.215-.072-.073 0-.144 0-.216.072-.073 0-.073 0-.073.072-.072.072-.143.144-.216.144-.144.072-.216 0-.288.072-.288.144-.577.432-.865.647-.072.073-.216.144-.36.288a3.91 3.91 0 0 0-.648.505c-.145.071-.36.287-.505.287-.144.072-.432.144-.504.288-.072.144-.217.072-.288.144-.145.072-.217.216-.36.216-.217.072-.289.144-.361.36-.216.216-.432.648-.793.432.072-.072.504-.432.288-.576 0 .216-.216.072-.432.072.144-.144.216-.288.36-.36h.072c.073 0 .073-.144.216-.144.073 0 0 .072 0 .072.145.144.217 0 .361-.072.145-.072.72-.216.649-.432 0-.143-.577.36-.577.072 0-.072.073-.144.073-.215.36-.288.648-.576 1.008-.72.072 0 .072-.073.144-.073s.144-.071.216-.144c.36-.36.721-.719 1.082-1.007-.073-.072-.073-.144 0-.216 0 0 .07-.072.143-.072.216-.144.504-.216.72-.36.145-.144.217-.288.433-.432.289-.144.505-.216.793-.36.072-.072.072-.287.288-.36.216.217.432-.215.648 0-.144 0-.216.073-.216.144.145 0 .216-.144.433-.144 0 .217-.145.217-.217.288-.144.144.072.216.145.072.072-.143.072-.216.216-.216.072 0 .072-.144.072-.215 0-.073.071-.073.144-.073.216-.071.288-.215.504-.215.145-.073.217 0 .217-.144 0-.073.071-.144.144-.144.143-.144.215-.144.431-.216.577-.072 1.081-.36 1.658-.576.288-.072.576-.072.792-.144l.65-.216c.215-.072.072-.216.288-.288h.576a.55.55 0 0 1 .36-.144c.144 0 .36.144.505.072v-.144h.288c.144-.072.36-.072.505-.072.143-.072.432.072.576-.072-.144-.288-.433-.36-.649-.36z" transform="translate(403.586 -119.01)" opacity=".91"/><radialGradient id="u" cx="119.463" cy="80.536" r="60.587" gradientTransform="matrix(1.00105 0 0 1 -.968 0)" gradientUnits="userSpaceOnUse" transform="translate(403.586 -119.01)"><stop offset="0" style="stop-color:#110808;stop-opacity:0"/><stop offset=".648" style="stop-color:#110808;stop-opacity:0"/><stop offset=".936" style="stop-color:#110808"/></radialGradient><path class="highlight" fill="url(#u)" d="M93.88 84.59c-.287-1.584-1.44-3.456-2.593-4.248-.458-.316-1.341-1.003-2.02-.538-2.95 2.018-6.83 8.611-8.428 11.12-.073.072-.144.287-.216.36-.073.143-.144.071-.216.143v.144c-.145.216-.289.504-.433.72-.144.36-.432.648-.648 1.008l-.216.431c-.072.144-.217.217-.288.36-2.588 4.905-4.62 10.238-4.59 15.772.59 7.375 5.835 8.643 8.892 6.158-.577.468-1.16.691-1.632.691-4.323 0-2.887-9.088-1.734-10.888.072-.071 0-.144 0-.215.072 0 .144 0 .144-.073.072 0 .072-.215.072-.215 1.441-3.96 4.828-9.43 7.061-11.95l.433-.431c.072-.072.144-.216.216-.288 0-.072.144-.072.144-.072.072-.144-.071-.144.145-.216.143-.072.576-.792.792-.936 1.73-1.727 4.107-3.67 5.044-5.11.288-.648.217-1.152.072-1.728z" transform="translate(403.586 -119.01)" opacity=".91"/><radialGradient id="v" cx="124.203" cy="88.54" r="48.433" gradientTransform="matrix(1.00105 0 0 1 -.968 0)" gradientUnits="userSpaceOnUse" transform="translate(403.586 -119.01)"><stop offset="0" style="stop-color:#110808;stop-opacity:0"/><stop offset=".681" style="stop-color:#110808;stop-opacity:0"/><stop offset=".884" style="stop-color:#110808"/></radialGradient><path class="highlight" fill="url(#v)" d="M101.87 113.884v-.002c-1.316 1.718-2.918 2.87-4.429 2.87-1.342 0-3.488-.5-3.37-3.771.051-1.454.418-2.978.847-4.157.071-.214.144-.5.144-.713.216-.143.288-.357.36-.57.073-.215.073-.5.216-.571.144-.071.144-.285.216-.428.793-2.21 2.09-4.277 2.09-6.559 0-1.853-3.963-4.848-4.9-3.92-.144.142-.072.356-.144.926-.345 2.337-1.889 5.995-2.714 8.898-.015.05-.505 1.896-.62 3.925-.008.123-.007.244-.01.367.68 5.872 7.825 10.304 12.314 3.705z" transform="translate(403.586 -119.01)" opacity=".91"/><radialGradient id="w" cx="130.996" cy="100.291" r="63.685" gradientTransform="matrix(1.00105 0 0 1 -.968 0)" gradientUnits="userSpaceOnUse" transform="translate(403.586 -119.01)"><stop offset=".609" style="stop-color:#110808"/><stop offset=".812" style="stop-color:#110808;stop-opacity:0"/></radialGradient><path class="highlight" fill="url(#w)" d="M89.565 109.812a21.6 21.6 0 0 1 .499-3.42c-1.568 3.647-5.593 9.46-8.06 10.233.22-.063.448-.155.683-.297-3.095 2.04-7.892.571-8.455-6.466-.007-1.34.11-2.667.324-3.98-.29 1.78-.405 3.585-.275 5.412.289 2.375 1.153 4.75 2.595 6.478.072.072.216 0 .216.144 0 .072 0 .216.072.216 0 .072.144 0 .144.072s0 .144.145.072c.07 0 .215.216.288.288.648.36 1.945.864 3.242.864 1.44 0 3.389-.82 4.748-2.425.078-.141.222-.136.228-.28.154-.282.448-.415.672-.622a38.982 38.982 0 0 0 3.04-3.843c-.085-.748-.154-1.589-.106-2.446z" transform="translate(403.586 -119.01)" opacity=".91"/></g><g aria-label="a" transform="matrix(1.82 0 0 1.82 -421.93 404.99)"><path class="c1" d="M523.848-5.974c-.004 1.092.102 2.161.39 3.096.576 1.872 1.602 3.24 4.05 3.24 1.598 0 2.908-.838 5.217-2.614.273-.21.515-.458.767-.694.103-.096.18-.198.27-.302.116-.132.277-.242.413-.354.195-.157.413-.327.574-.522a.581.581 0 0 0 .145-.327.502.502 0 0 0 .214-.033c.174-.068.247-.249.336-.397.104-.176.26-.14.385-.288.251-.292 2.484-1.997 2.731-3.541.1-.619-.173-1.657-1.339-1.934-.272.721-1.79 2.541-4.012 4.588-2.113 1.947-3.97 3.589-4.845 3.575-3.173-.048 5.175-14.654 5.607-15.447.431-.863 1.44-2.376 1.44-3.312.071-.72-.792-1.08-1.513-1.584-.503-.36-2.232-1.656-2.88-1.44-.396.132-.68.418-.912.771-.047.072-.729 1.15-1.338 2.215-1.447-1.27-3.721-2.266-5.526-2.266-1.224 0-3.024.792-4.753 2.52-1.656 1.656-2.736 3.313-3.888 5.329-1.44 2.664-3.506 8.106-2.83 11.896.402 2.248 1.468 3.863 3.289 4.091 2.37.297 4.549-2.323 5.52-3.412.81-.908 1.678-1.873 2.488-2.854zm-6.607 3.216c-.648-.019-.526-1.29-.324-2.803.267-2.002 1.272-4.446 2.136-6.101 2.016-3.817 2.957-5.283 5.046-6.723.857-.584 1.817-.746 2.563-.737.483.006 1.032.144 1.562.366-.773 1.438-1.483 2.584-2.553 5.058-2.562 4.527-7.627 10.88-8.43 10.94z" fill="#b51b15"/><radialGradient id="x" cx="116.215" cy="98.03" r="29.405" gradientUnits="userSpaceOnUse" transform="translate(425.89 -118.968)"><stop offset="0" style="stop-color:#110808;stop-opacity:0"/><stop offset=".506" style="stop-color:#110808;stop-opacity:0"/><stop offset=".895" style="stop-color:#110808"/></radialGradient><path class="highlight" fill="url(#x)" d="M105.345 115.329v-.001c-.896.71-1.63 1.166-2.09 1.16-3.173-.049 5.175-14.655 5.607-15.448.431-.864 1.44-2.376 1.44-3.312.071-.72-.792-1.08-1.513-1.584-.504-.36-2.232-1.656-2.88-1.44-.396.132-.68.418-.912.771-.066.1-1.386 2.184-1.994 3.434-1.249 2.568-2.096 3.48-3.933 8.07-.438 1.096-.812 2.58-.997 4.132.365 6.26 3.953 7.138 7.272 4.218z" transform="translate(425.89 -118.968)" opacity=".91"/><linearGradient id="y" gradientUnits="userSpaceOnUse" x1="114.575" y1="101.46" x2="104.262" y2="112.696"><stop offset=".258" style="stop-color:#110808"/><stop offset=".479" style="stop-color:#110808;stop-opacity:.68377"/><stop offset=".956" style="stop-color:#110808;stop-opacity:0"/></linearGradient><path class="highlight" fill="url(#y)" d="M112.112 108.323c-.272.722-1.79 2.542-4.012 4.589-1.003.924-1.945 1.773-2.755 2.416-3.32 2.92-6.907 2.043-7.272-4.217-.204 1.71-.177 3.507.276 4.979.576 1.872 1.602 3.24 4.05 3.24 1.598 0 2.907-.838 5.217-2.615.273-.21.515-.457.767-.693.103-.097.18-.199.27-.302.116-.133.277-.243.413-.354.195-.157.413-.327.573-.522a.581.581 0 0 0 .146-.327.502.502 0 0 0 .214-.033c.174-.069.247-.25.336-.397.104-.176.26-.14.385-.288.251-.293 2.484-1.997 2.731-3.542.1-.618-.173-1.656-1.339-1.934z" transform="translate(425.89 -118.968)" opacity=".91"/><radialGradient id="z" cx="103.259" cy="99.489" r="5.548" gradientTransform="matrix(.6646 .7472 -.52164 .46397 86.53 -23.826)" gradientUnits="userSpaceOnUse" transform="translate(425.89 -118.968)"><stop offset=".198" style="stop-color:#110808"/><stop offset="1" style="stop-color:#110808;stop-opacity:0"/></radialGradient><path class="highlight" fill="url(#z)" d="M108.79 96.144c-.505-.36-2.233-1.656-2.88-1.44-.397.132-.681.418-.913.771-.047.072-.73 1.15-1.338 2.215.443.389.815.801 1.064 1.22.614 1.036.136 2.562-.222 3.149-.32-.758-1.21-1.446-2.166-1.847-.597 1.112-1.157 2.048-1.872 3.553 1.957.607 3.42 2.405 5.307 3.078 1.468-2.937 2.918-5.485 3.092-5.803.431-.864 1.44-2.376 1.44-3.312.071-.72-.792-1.08-1.513-1.584z" transform="translate(425.89 -118.968)" opacity=".91"/><radialGradient id="A" cx="110.811" cy="91.276" r="38.004" gradientUnits="userSpaceOnUse" transform="translate(425.89 -118.968)"><stop offset="0" style="stop-color:#110808;stop-opacity:0"/><stop offset=".616" style="stop-color:#110808;stop-opacity:0"/><stop offset=".927" style="stop-color:#110808"/></radialGradient><path class="highlight" fill="url(#A)" d="M104.723 98.91c-1.06-1.79-4.232-3.486-6.59-3.486-1.225 0-3.024.792-4.753 2.52-1.656 1.656-2.736 3.312-3.889 5.329-.937 1.735-2.136 4.648-2.674 7.516-.279 7.034 2.947 7.359 5.373 4.795v-.001c-.395.388-.69.616-.838.627-.648-.019-.526-1.29-.324-2.803.267-2.002 1.272-4.446 2.136-6.102 2.016-3.817 2.957-5.282 5.046-6.723.856-.584 1.817-.746 2.562-.736 1.355.017 3.233 1.034 3.73 2.213.357-.587.835-2.113.221-3.148z" transform="translate(425.89 -118.968)" opacity=".91"/><linearGradient id="B" gradientUnits="userSpaceOnUse" x1="104.662" y1="110.777" x2="89" y2="113.239"><stop offset=".21" style="stop-color:#110808"/><stop offset=".435" style="stop-color:#110808;stop-opacity:.68377"/><stop offset=".922" style="stop-color:#110808;stop-opacity:0"/></linearGradient><path class="highlight" fill="url(#B)" d="M86.817 110.789c-.288 1.535-.39 3.058-.155 4.38.402 2.248 1.468 3.863 3.289 4.09 2.37.297 4.549-2.323 5.52-3.411.81-.908 1.678-1.873 2.488-2.854.008-2.19.496-4.478 1.111-6.014.262-.653.497-1.21.722-1.729-2.087 3.694-5.85 8.612-7.602 10.332v.002c-2.426 2.563-5.652 2.238-5.373-4.796z" transform="translate(425.89 -118.968)" opacity=".91"/></g><g aria-label="t" transform="matrix(1.82 0 0 1.82 -421.93 404.99)"><path class="c1" d="M540.412-.43c.216.145.432.217.649.289.071.145.071.145.288.216.647.144 1.08.216 1.727.216 1.152 0 2.75-.09 4.895-1.976.259-.227.515-.457.767-.693.103-.096.179-.199.27-.302.115-.133.277-.242.412-.354.196-.157.414-.327.574-.522a.581.581 0 0 0 .146-.327.502.502 0 0 0 .214-.033c.174-.069.247-.25.336-.397.104-.176.26-.14.385-.288.251-.293 2.484-2.564 2.731-4.108.1-.619-.173-1.657-1.34-1.934-.27.721-1.79 3.108-4.011 5.155-2.113 1.946-3.61 3.008-4.65 3.008-.754 0-1.136-1.697-.822-3.95.602-4.32 3.124-10.665 5.1-14.732a.088.088 0 0 1 .013-.072c.04-.062.076-.127.115-.19.187-.382.36-.742.524-1.086a41.46 41.46 0 0 0 3.643.188c.782.006 1.486-.03 1.932-.14 1.44-.361 1.944-1.657 1.872-2.809-.072-1.008-.504-2.232-1.944-2.736-.432-.144-1.08-.144-1.153.144-.071.216.145.504 0 .792-.072.145-.454.235-.945.28-.262.023-.836.002-1.56-.042.525-1.503.56-2.177.56-2.686.073-.792-.215-1.657-.647-2.233-1.08-1.368-2.376-2.232-3.312-2.448-.864-.216-1.224 0-1.296.216 0 .144.144.216.36.648.36.72-.216 2.16-.505 2.808-.408 1.091-.814 2.167-1.216 3.213-.542-.042-.94-.068-1.085-.063-.756.025-1.708.121-2.45.307-2.593.72-3.313 1.368-3.96 2.16-.577.648-.793 1.44-.505 1.656.288.144.72-.072 1.728-.216 1.789-.123 3.365.07 4.278.128.132.014.266.033.399.05a88.32 88.32 0 0 1-.628 1.484c-2.271 5.21-4.043 8.719-4.337 12.235-.143 1.512-.288 2.953.216 4.393h.072c.144.071.144.144.216.36v.287c-.216-.07-.144-.359-.216-.503h-.072c-.144.215.072.864.216 1.152.072.288.144.647.36.935l.072.145h.144c.072 0 .072 0 .144.143.144.145.289.217.36.289.072 0 .217.072.144.144 0 .07-.266.005-.35 0 .02.046.062.216.062.216 0 .072.145.143.145.216.071.144.071.216.216.288.07.072.215.144.359.288.36.36-.144.648.36.792zm.432-.287a.396.396 0 0 1 .217.36c-.145-.072-.36-.216-.217-.36zm-.216-.288c-.071-.144-.288-.216-.288-.432.145.072.36.144.288.432zm-.792-.72v-.145c.145 0 .145.145.145.217-.073 0-.145-.072-.145-.072z" fill="#b51b15"/><linearGradient id="C" gradientUnits="userSpaceOnUse" x1="102.454" y1="86.057" x2="99.437" y2="101.769"><stop offset=".096" style="stop-color:#110808;stop-opacity:0"/><stop offset=".189" style="stop-color:#110808;stop-opacity:.27558"/><stop offset=".314" style="stop-color:#110808;stop-opacity:.64595"/><stop offset=".434" style="stop-color:#110808"/><stop offset=".445" style="stop-color:#110808"/><stop offset=".565" style="stop-color:#110808"/><stop offset=".635" style="stop-color:#110808;stop-opacity:.83916"/><stop offset=".741" style="stop-color:#110808;stop-opacity:.59488"/><stop offset=".857" style="stop-color:#110808;stop-opacity:.32822"/><stop offset="1" style="stop-color:#110808;stop-opacity:0"/></linearGradient><path class="highlight" fill="url(#C)" d="M98.231 91.652c1.536.119 4.27.373 6.056.482.525-1.503.561-2.177.561-2.687.072-.792-.216-1.656-.647-2.232-1.08-1.368-2.376-2.232-3.313-2.448-.864-.216-1.223 0-1.296.216 0 .144.144.216.36.648.36.72-.216 2.16-.504 2.808-.409 1.091-.815 2.167-1.217 3.213z" transform="translate(446.293 -118.967)" opacity=".91"/><linearGradient id="D" gradientUnits="userSpaceOnUse" x1="103.758" y1="87.933" x2="101.002" y2="102.286"><stop offset=".043" style="stop-color:#110808;stop-opacity:0"/><stop offset=".151" style="stop-color:#110808;stop-opacity:.27558"/><stop offset=".296" style="stop-color:#110808;stop-opacity:.64595"/><stop offset=".434" style="stop-color:#110808"/><stop offset=".441" style="stop-color:#110808"/><stop offset=".519" style="stop-color:#110808"/><stop offset=".662" style="stop-color:#110808;stop-opacity:.70229"/><stop offset=".864" style="stop-color:#110808;stop-opacity:.2824"/><stop offset="1" style="stop-color:#110808;stop-opacity:0"/></linearGradient><path class="highlight" fill="url(#D)" d="M106.174 108.323c-.272.722-1.79 3.11-4.012 5.156-2.113 1.946-3.61 3.008-4.649 3.008-.755 0-1.136-1.697-.823-3.95.603-4.32 3.125-10.665 5.1-14.732a.088.088 0 0 1 .013-.072c.04-.063.077-.127.115-.19.187-.382.36-.742.524-1.086-2.325-.22-4.098-.576-5.806-.784a88.32 88.32 0 0 1-.628 1.485c-2.27 5.21-4.043 8.719-4.337 12.235-.143 1.512-.288 2.952.216 4.393h.072c.144.071.144.143.216.36v.287c-.216-.071-.143-.36-.216-.504h-.072c-.143.216.072.865.216 1.153.072.288.145.647.36.935l.073.145h.143c.072 0 .072 0 .145.143.143.145.288.217.36.288.071 0 .216.073.144.145 0 .07-.267.005-.35 0 .019.046.062.216.062.216 0 .072.144.143.144.216.071.144.071.215.216.288.071.072.216.144.36.288.36.36-.144.648.36.792.215.144.431.216.648.288.071.144.071.144.288.216.648.144 1.08.215 1.728.215 1.152 0 2.75-.088 4.894-1.975.259-.227.515-.457.767-.693.103-.097.18-.199.27-.303.116-.132.277-.242.413-.353.195-.157.413-.328.574-.522a.581.581 0 0 0 .145-.327.502.502 0 0 0 .214-.033c.174-.069.247-.25.336-.397.104-.176.26-.14.385-.288.251-.293 2.484-2.564 2.731-4.109.1-.618-.173-1.656-1.339-1.934z" transform="translate(446.293 -118.967)" opacity=".91"/><radialGradient id="E" cx="113.418" cy="93.021" r="37.673" gradientUnits="userSpaceOnUse" transform="translate(446.293 -118.967)"><stop offset="0" style="stop-color:#110808;stop-opacity:0"/><stop offset=".544" style="stop-color:#110808;stop-opacity:0"/><stop offset=".884" style="stop-color:#110808"/></radialGradient><path class="highlight" fill="url(#E)" d="M96.69 112.538c.444-3.184 1.93-7.461 3.472-11.122a32.772 32.772 0 0 1-1.547-1.092c-.92-.696-2.14-1.292-3.096-2.056-2.03 4.6-3.576 7.869-3.848 11.125a26.35 26.35 0 0 0-.13 1.808c.859 6.722 5.363 6.75 8.398 4.154-.999.738-1.798 1.132-2.426 1.132-.755 0-1.136-1.697-.823-3.95z" transform="translate(446.293 -118.967)" opacity=".91"/><radialGradient id="F" cx="98.423" cy="79.982" r="25.655" gradientUnits="userSpaceOnUse" transform="translate(446.293 -118.967)"><stop offset="0" style="stop-color:#110808;stop-opacity:0"/><stop offset=".516" style="stop-color:#110808;stop-opacity:0"/><stop offset=".724" style="stop-color:#110808"/></radialGradient><path class="highlight" fill="url(#F)" d="M108.085 94.875c1.023-1.22 1.069-4.01-1.296-3.708-.022.208.135.467.003.729-.072.145-.454.235-.945.28-.595.053-2.75-.117-4.774-.287-4.562-.265-6.262.169-8.175 1.025-1.458.652-2.793 2.457-2.313 2.826.286-.027.697-.147 1.374-.244 1.79-.124 3.365.07 4.278.128.8.085 1.608.21 2.466.344 5.602.477 8.026.523 9.382-1.093z" transform="translate(446.293 -118.967)" opacity=".91"/><linearGradient id="G" gradientUnits="userSpaceOnUse" x1="109.289" y1="99.32" x2="94.687" y2="117.044"><stop offset=".21" style="stop-color:#110808"/><stop offset=".435" style="stop-color:#110808;stop-opacity:.68377"/><stop offset=".922" style="stop-color:#110808;stop-opacity:0"/></linearGradient><path class="highlight" fill="url(#G)" d="M106.174 108.323c-.272.722-1.79 3.11-4.012 5.156-.835.769-1.57 1.394-2.223 1.876-3.035 2.596-7.54 2.568-8.397-4.154-.022.872.046 1.728.345 2.585h.072c.144.071.144.143.216.36v.287c-.216-.071-.143-.36-.216-.504h-.072c-.143.216.072.865.216 1.153.072.288.144.647.36.935l.073.145h.143c.072 0 .072 0 .145.143.143.145.288.217.36.288.071 0 .216.073.144.145 0 .07-.267.005-.35 0 .019.046.061.216.061.216 0 .072.145.143.145.216.071.144.071.215.216.288.071.072.216.144.36.288.36.36-.144.648.36.792.215.144.431.216.648.288.071.144.071.144.288.216.648.144 1.08.215 1.728.215 1.152 0 2.75-.088 4.894-1.975.259-.227.515-.457.767-.693.103-.097.18-.199.27-.303.116-.132.277-.242.413-.353.195-.157.413-.328.574-.522a.581.581 0 0 0 .145-.327.502.502 0 0 0 .214-.033c.174-.069.247-.25.336-.397.104-.176.26-.14.385-.288.251-.293 2.484-2.564 2.731-4.109.1-.618-.173-1.656-1.339-1.934zm-12.63 8.919v-.145c.144 0 .144.145.144.217-.072 0-.145-.072-.145-.072zm.791.72c-.07-.144-.288-.216-.288-.432.145.072.36.143.288.432zm.216.288a.396.396 0 0 1 .217.36c-.145-.072-.36-.216-.217-.36z" transform="translate(446.293 -118.967)" opacity=".91"/></g><g aria-label="c" transform="matrix(1.82 0 0 1.82 -421.93 404.99)"><path class="c1" d="M569.423-8.71c.1-.619-.174-1.657-1.34-1.934-.271.721-1.79 2.542-4.011 4.588-2.113 1.947-4.675 3.643-6.2 3.643-.895 0-1.499-.816-1.499-2.29 0-3.042 2.328-7.727 3.132-9.048 1.44-2.376 3.24-4.177 4.609-5.113.792-.503 2.448-.432 2.376.648 0 .72-.289 1.369-.72 1.873-.36.504-1.296 1.44-1.08 1.584.216.216 1.44-.72 1.8-1.008.864-.792 1.656-1.944 2.16-3.024.504-1.297-.576-2.88-3.025-4.393-2.303-1.368-3.672-1.224-5.04-.576-1.944.936-3.312 2.665-4.464 4.464a32.221 32.221 0 0 0-3.384 7.201c-.72 2.16-1.44 4.896-.937 7.057.514 3.417 3.07 5.4 5.706 5.4 1.611 0 3.34-.586 6.082-2.614.277-.205.515-.458.767-.693.103-.097.179-.2.27-.303.115-.132.277-.242.412-.354.195-.157.413-.327.574-.522a.581.581 0 0 0 .146-.327.502.502 0 0 0 .213-.032c.175-.07.248-.25.336-.398.105-.176.26-.14.385-.288.252-.292 2.484-1.997 2.732-3.541z" fill="#b51b15"/><radialGradient id="H" cx="120.673" cy="91.704" r="44.028" gradientUnits="userSpaceOnUse" transform="translate(460.537 -118.968)"><stop offset="0" style="stop-color:#110808;stop-opacity:0"/><stop offset=".589" style="stop-color:#110808;stop-opacity:0"/><stop offset=".873" style="stop-color:#110808"/></radialGradient><path class="highlight" fill="url(#H)" d="m100.44 115.323.001-.008c-1.18.748-2.292 1.24-3.106 1.24-.895 0-1.498-.816-1.498-2.291 0-3.041 2.327-7.726 3.131-9.047 1.44-2.377 3.24-4.177 4.609-5.113.792-.504 2.448-.432 2.376.648 0 .72-.288 1.368-.72 1.873-.36.504-1.296 1.44-1.08 1.584.216.215 1.44-.72 1.8-1.009.864-.792 1.656-1.944 2.16-3.024.504-1.296-.576-2.88-3.024-4.392-2.304-1.368-3.672-1.224-5.04-.576-1.945.936-3.313 2.664-4.464 4.464a32.221 32.221 0 0 0-3.385 7.2c-.427 1.282-.848 2.764-1.02 4.21l.001-.001c.554 6.226 5.295 7.158 9.26 4.242z" transform="translate(460.537 -118.968)" opacity=".91"/><linearGradient id="I" gradientUnits="userSpaceOnUse" x1="116.929" y1="98.232" x2="98.561" y2="119.171"><stop offset=".321" style="stop-color:#110808"/><stop offset=".519" style="stop-color:#110808;stop-opacity:.68377"/><stop offset=".948" style="stop-color:#110808;stop-opacity:0"/></linearGradient><path class="highlight" fill="url(#I)" d="M107.547 108.323c-.272.722-1.79 2.542-4.012 4.589-1.92 1.768-4.2 3.315-5.747 3.587-.393.933-.785 1.866-1.182 2.797.121.008.241.034.363.034 1.612 0 3.34-.587 6.082-2.615.277-.204.515-.457.767-.693.103-.096.179-.199.27-.302.115-.133.277-.242.413-.354.195-.157.413-.327.573-.522a.581.581 0 0 0 .146-.327.502.502 0 0 0 .214-.033c.174-.069.247-.25.336-.397.104-.176.26-.14.385-.288.251-.293 2.484-1.997 2.731-3.542.1-.618-.173-1.656-1.34-1.934z" transform="translate(460.537 -118.968)" opacity=".91"/></g><g aria-label="h" transform="matrix(1.82 0 0 1.82 -421.93 404.99)"><path class="c1" d="m573.56-7.804.137-.419c1.74-1.72 4.594-4.295 5.14-4.745.081-.061.112-.275.264-.326.082-.06.235-.111.316-.173.246-.182.572-.426.826-.68.489-.366.989-.803 1.477-1.169.25-.162.757-.551 1.36-1.032-.445 1.119-.884 2.235-1.268 3.161-.575 1.512-1.007 2.951-1.512 4.751-.287 1.08-.359 2.015-.43 2.518 0 1.583.143 2.447.36 3.023.143.576.503 1.295.934 1.728.145.143.36.288.504.503.072.073.648.216.576.288 0 .31 1.516.812 2.575.812 3.303 0 4.935-1.621 6.113-2.705.259-.227.514-.458.766-.693.103-.097.179-.199.27-.303.115-.132.277-.242.412-.353.195-.157.413-.327.574-.522a.58.58 0 0 0 .146-.326.502.502 0 0 0 .213-.033c.174-.07.247-.25.336-.398.104-.175.26-.139.385-.287.25-.293 2.482-1.996 2.73-3.54.099-.618-.174-1.656-1.339-1.933-.271.721-1.79 2.54-4.01 4.586-2.112 1.946-3.821 3.574-5.233 3.574-1.755 0-1.047-2.938-.67-3.98 1.287-3.56 4.038-7.89 5.152-10.452.288-.72.72-1.8.936-2.879.288-1.8-.936-2.447-2.087-3.166-.432-.288-.935-.504-1.368-.792-.453-.255-1.043-.14-1.503.285-.333.309-.629.752-.893 1.215-1.143.888-2.775 2.185-3.505 2.818-1.444 1.204-4.426 3.552-6.74 5.789.87-2.335 3.121-7.741 4.509-10.683 1.44-3.167 3.455-6.405 3.455-9.5 0-1.943-1.8-3.526-2.592-4.102-.863-.648-1.726-1.008-2.447-1.008-.576 0-.935.216-.935.432-.072.288.216.288.432.864.144.288.144.864.144 1.223-.288 3.815-4.535 12.091-5.83 15.402-1.223 2.879-3.023 8.132-3.958 11.371-.792 2.807-1.44 5.254-1.008 7.198.36 1.583 2.088 2.878 3.814 2.878.505 0 1.009-.144 1.297-.576.143-.288-.649-.576-.36-2.231.061-.798.751-3.066 1.535-5.413z" fill="#b51b15"/><radialGradient id="J" cx="130.254" cy="87.781" r="44.434" gradientUnits="userSpaceOnUse" transform="translate(481.957 -118.986)"><stop offset="0" style="stop-color:#110808;stop-opacity:0"/><stop offset=".67" style="stop-color:#110808;stop-opacity:0"/><stop offset="1" style="stop-color:#110808"/></radialGradient><path class="highlight" fill="url(#J)" d="M106.43 115.532c-.81.586-1.544.957-2.21.957-1.754 0-1.046-2.938-.67-3.98 1.287-3.56 4.039-7.89 5.153-10.452.288-.72.72-1.8.936-2.879.288-1.8-.936-2.447-2.088-3.166-.431-.288-.935-.504-1.368-.792-.453-.255-1.043-.14-1.503.285-.724.671-1.282 1.974-1.684 2.759-.9 1.758-2.193 5.234-3.145 7.535-.576 1.512-1.008 2.951-1.512 4.751-.045.167-.076.323-.11.482-.867 5.644 4.904 7.295 8.2 4.5z" transform="translate(481.957 -118.986)" opacity=".91"/><linearGradient id="K" gradientUnits="userSpaceOnUse" x1="120.901" y1="101.049" x2="104.719" y2="115.434"><stop offset=".267" style="stop-color:#110808"/><stop offset=".474" style="stop-color:#110808;stop-opacity:.68377"/><stop offset=".922" style="stop-color:#110808;stop-opacity:0"/></linearGradient><path class="highlight" fill="url(#K)" d="M113.463 108.329c-.271.721-1.79 2.54-4.01 4.586-1.116 1.028-2.117 1.96-3.024 2.617-3.296 2.795-5.061 2.555-8.161.56.143.575.503 1.294.935 1.727.144.143.36.288.503.503.072.073.648.216.576.288 0 .31 1.516.812 2.575.812 3.303 0 4.936-1.621 6.113-2.705.26-.227.515-.458.766-.693.103-.097.18-.199.27-.303.116-.132.277-.242.412-.353.195-.157.413-.327.574-.522a.58.58 0 0 0 .146-.327.502.502 0 0 0 .213-.032c.174-.07.248-.25.336-.398.104-.175.26-.139.385-.287.251-.293 2.483-1.996 2.73-3.54.1-.618-.173-1.656-1.339-1.933z" transform="translate(481.957 -118.986)" opacity=".91"/><linearGradient id="L" gradientUnits="userSpaceOnUse" x1="82.357" y1="116.906" x2="101.817" y2="100.108"><stop offset=".389" style="stop-color:#110808"/><stop offset=".558" style="stop-color:#110808;stop-opacity:.68377"/><stop offset=".922" style="stop-color:#110808;stop-opacity:0"/></linearGradient><path class="highlight" fill="url(#L)" d="M104.627 96.075c-.955.72-3.404 2.647-4.345 3.463-1.444 1.204-4.426 3.552-6.74 5.789v.005c-.221.592-1.393 4.17-1.807 5.431 1.741-1.72 4.594-4.295 5.14-4.745.082-.061.113-.275.265-.326.082-.06.235-.111.316-.173a7.74 7.74 0 0 0 .825-.68c.49-.366.989-.803 1.478-1.169.895-.58 5.078-4.056 5.35-4.427.769-1.051.539-2.819-.482-3.168z" transform="translate(481.957 -118.986)" opacity=".91"/><linearGradient id="M" gradientUnits="userSpaceOnUse" x1="87.962" y1="133.302" x2="93.736" y2="97.628"><stop offset=".21" style="stop-color:#110808"/><stop offset=".435" style="stop-color:#110808;stop-opacity:.68377"/><stop offset=".922" style="stop-color:#110808;stop-opacity:0"/></linearGradient><path class="highlight" fill="url(#M)" d="M90.063 116.595c.061-.798.752-3.066 1.535-5.413.134-.403 1.686-5.16 1.943-5.85.868-2.333 3.122-7.744 4.51-10.688 1.44-3.166 3.455-6.405 3.455-9.5 0-1.943-1.8-3.526-2.591-4.102-.864-.648-1.727-1.008-2.447-1.008-.576 0-.935.216-.935.432-.073.288.215.288.431.864.144.288.144.864.144 1.223-.287 3.815-4.534 12.091-5.83 15.402-1.223 2.879-3.023 8.132-3.958 11.371-.791 2.807-1.44 5.254-1.008 7.198.36 1.583 2.088 2.878 3.815 2.878.504 0 1.008-.144 1.296-.576.143-.288-.648-.576-.36-2.231z" transform="translate(481.957 -118.986)" opacity=".91"/></g><g aria-label="I" transform="matrix(1.82 0 0 1.82 -421.93 404.99)"><path class="c1" d="M593.186-1.295c.288-.288.648-.504 1.08-.72 1.623-.834 3.58-1.279 5.575-1.521 1.085-.132 2.097-.2 3.08-.24-.354-1.119-.574-2.528-.585-4.065-.048-6.461 2.091-11.768 4.099-16.854.733-1.97 2.94-6.623 3.604-9.202-1.238.108-2.994.27-4.036.418-1.297.144-2.52-.072-3.24-1.009-.433-.575-1.153-2.952-1.009-3.528.072-.288.288-.288.505-.432.431-.144.935-.144 1.44-.216 3.743-.288 7.704-.288 11.592.36 2.593.432 7.705 1.296 9.722 3.312.431.433.935 1.44.575 1.585-.144.072-.648-.288-1.296-.505-2.517-.838-4.814-.618-6.868-.598a23.49 23.49 0 0 0-1.386.064c.167.26.26.542.276.856.044.818-.301 1.92-1.239 4.36-.907 2.36-3.384 7.92-4.464 10.656-.072.144-.144.432-.36.576-.288.144-.288.36-.504.576.216 0 .216-.288.504-.288-.072.648-.72 1.152-.864 1.728-.072.216-.144.36-.288.504.072.072.288-.36.36-.36-.144.288-.216.864-.504 1.296-.216.36-.144 1.08-.432 1.44-.216.289-.216.72-.504 1.008-.144.217-.144.144-.216.36-.072.145-.288.217-.288.432-.073.144-.073.36-.144.505-.072.072-.288.36-.288.36-.144 0 .504-1.584.576-1.728 0-.217.144-.289.216-.433.072-.215.216-.432.288-.576.144-.432.432-1.008.576-1.44-.36-.072-.144.577-.36.72-.288.144-.432.504-.576.864-.072.36-.504 1.368-.649 1.513 0 .144-.143.288-.215.432 0 .288.072.504 0 .72-.144.287-.144.576-.216.864-.073.432.072.936.072 1.368-.086.171-.591 1.837-.814 3.293-.053.348-.099.68-.142 1 1.558-.018 3.125-.039 4.861-.2 2.171-.2 3.852-.38 5.024-.785.288-.144.504-.36.431-.648 0-.144-.071-.288 0-.36.073-.072.36 0 .504.143.217.144.36.289.505.504.287.36.504.793.648 1.297 0 0 .072.072.072.144.072.432.072.936 0 1.44 0 .432-.216 1.872-2.16 2.592-.865.36-2.017.504-3.744.504-4.25-.144-11.882-1.512-15.626-1.584-.936 0-1.728.144-2.088.288-.36.072-.72.216-1.08.36-.216.072-.504.144-.577.072-.143-.144.145-.862.577-1.222zm13.753-8.062c-.072.215-.072.36-.072.576 0 .072 0 .36.072.36.072-.288.072-.504.144-.792.071-.144.071-.216.071-.36 0-.072 0-.144.073-.216 0-.072.072-.072.144-.145 0-.071-.072-.144-.072-.215 0-.073-.145-.216-.145-.216-.07.36-.215.72-.215 1.008z" fill="#b51b15"/><linearGradient id="N" gradientUnits="userSpaceOnUse" x1="94.498" y1="124.499" x2="101.936" y2="88.407"><stop offset=".125" style="stop-color:#110808"/><stop offset=".304" style="stop-color:#110808;stop-opacity:.68377"/><stop offset=".691" style="stop-color:#110808;stop-opacity:0"/></linearGradient><path class="highlight" fill="url(#N)" d="M97.941 109.779c-.072.288-.072.504-.144.792-.071 0-.071-.288-.071-.36 0-.216 0-.36.07-.576 0-.288.145-.648.217-1.008 0 0 .144.144.144.216 0 .072.073.144.073.216-.073.072-.145.072-.145.144-.072.072-.072.144-.072.216 0 .144 0 .216-.072.36zm-1.244 5.373a91.2 91.2 0 0 1 .142-1c.223-1.456.729-3.122.814-3.293 0-.432-.144-.936-.072-1.368.072-.288.072-.576.216-.864.072-.216 0-.432 0-.72.072-.144.216-.288.216-.432.144-.144.576-1.153.648-1.512.145-.36.288-.72.576-.864.216-.144 0-.793.36-.72-.144.432-.432 1.007-.575 1.44-.073.144-.216.36-.289.576-.072.144-.215.215-.215.432-.073.144-.721 1.728-.577 1.728 0 0 .216-.288.289-.36.07-.144.07-.36.143-.504 0-.216.216-.288.288-.432.072-.216.072-.144.216-.36.288-.289.288-.72.504-1.008.288-.36.217-1.08.433-1.44.288-.432.359-1.008.503-1.297-.072 0-.288.433-.36.36.145-.144.216-.288.288-.504.145-.576.792-1.08.864-1.728-.288 0-.288.288-.503.288.215-.216.215-.432.503-.576.216-.144.289-.432.36-.576 1.08-2.736 3.558-8.297 4.465-10.657.937-2.44 1.282-3.54 1.239-4.358-.046-.867-.651-1.493-1.894-2.065-1.586-.732-4.098-1.323-4.277-.584-.058.24.104.494.09 1.204-.039 2.01-2.938 8.026-3.799 10.34-2.007 5.085-4.147 10.392-4.099 16.854.01 1.41.279 2.997.582 4.067a89.202 89.202 0 0 1 2.921-.067z" transform="translate(509.142 -118.992)" opacity=".91"/><linearGradient id="O" gradientUnits="userSpaceOnUse" x1="104.875" y1="78.971" x2="100.206" y2="97.113"><stop offset=".18" style="stop-color:#110808"/><stop offset=".414" style="stop-color:#110808;stop-opacity:.68377"/><stop offset=".922" style="stop-color:#110808;stop-opacity:0"/></linearGradient><path class="highlight" fill="url(#O)" d="M102.48 97.965c1.198-2.835 2.77-6.426 3.454-8.204.937-2.44 1.282-3.54 1.239-4.358a1.714 1.714 0 0 0-.277-.856c-1.493.105-3.308.317-4.768.443-.233.02-.687.058-1.23.106-.664 2.578-2.871 7.23-3.605 9.201-.476 1.206-.957 2.425-1.417 3.668h6.605z" transform="translate(509.142 -118.992)" opacity=".91"/><radialGradient id="P" cx="93.846" cy="100.291" r="26.87" gradientUnits="userSpaceOnUse" transform="translate(509.142 -118.992)"><stop offset=".636" style="stop-color:#110808;stop-opacity:0"/><stop offset=".877" style="stop-color:#110808"/></radialGradient><path class="highlight" fill="url(#P)" d="M107.033 117.535c.821-.876 1.48-3.332-.02-4.376-.07.072 0 .216 0 .36.073.288-.143.504-.43.648-1.173.406-2.854.585-5.024.786-3.065.284-5.61.138-8.496.3-5.728.684-9.295 2.534-9.452 3.691.122-.006.291-.05.433-.097.36-.144.72-.288 1.08-.36.36-.144 1.152-.288 2.088-.288 1.833.035 4.597.381 7.44.742 4.279.441 10.325.784 12.38-1.406z" transform="translate(509.142 -118.992)" opacity=".91"/><radialGradient id="Q" cx="113.613" cy="112.835" r="45.936" gradientUnits="userSpaceOnUse" transform="translate(509.142 -118.992)"><stop offset=".676" style="stop-color:#110808;stop-opacity:0"/><stop offset=".838" style="stop-color:#110808"/></radialGradient><path class="highlight" fill="url(#Q)" d="M115.871 84c-1.85-1.85-6.302-2.728-9.027-3.194-6.006-.454-11.85-.02-12.56.928-.603.803-.565 2.718.164 3.448.68.353 1.527.43 2.413.33 1.5-.213 4.505-.456 5.267-.522 1.956-.17 4.553-.492 6.155-.507 2.054-.02 4.35-.241 6.868.598.648.216 1.152.576 1.295.504.36-.144-.143-1.152-.575-1.584z" transform="translate(509.142 -118.992)" opacity=".91"/></g><g aria-label="t" transform="matrix(1.82 0 0 1.82 -421.93 404.99)"><path class="c1" d="M623.24-.43c.216.145.432.217.649.289.071.145.071.145.288.216.647.144 1.08.216 1.728.216 1.152 0 2.75-.09 4.894-1.976.259-.227.515-.457.767-.693.103-.096.18-.199.27-.302.115-.133.277-.242.413-.354.195-.157.413-.327.574-.522a.581.581 0 0 0 .145-.327.502.502 0 0 0 .214-.033c.174-.069.247-.25.336-.397.104-.176.26-.14.385-.288.251-.293 2.484-2.564 2.731-4.108.1-.619-.173-1.657-1.34-1.934-.27.721-1.79 3.108-4.011 5.155-2.113 1.946-3.61 3.008-4.649 3.008-.755 0-1.136-1.697-.823-3.95.603-4.32 3.125-10.665 5.1-14.732a.088.088 0 0 1 .013-.072c.04-.062.077-.127.115-.19.187-.382.36-.742.524-1.086a41.46 41.46 0 0 0 3.643.188c.783.006 1.486-.03 1.932-.14 1.44-.361 1.944-1.657 1.872-2.809-.072-1.008-.504-2.232-1.944-2.736-.432-.144-1.08-.144-1.153.144-.07.216.145.504 0 .792-.072.145-.454.235-.945.28-.262.023-.836.002-1.56-.042.525-1.503.561-2.177.561-2.686.072-.792-.216-1.657-.647-2.233-1.08-1.368-2.376-2.232-3.313-2.448-.864-.216-1.224 0-1.296.216 0 .144.144.216.36.648.36.72-.216 2.16-.504 2.808-.409 1.091-.815 2.167-1.217 3.213-.542-.042-.94-.068-1.084-.063-.757.025-1.708.121-2.451.307-2.593.72-3.313 1.368-3.96 2.16-.576.648-.793 1.44-.505 1.656.288.144.72-.072 1.728-.216 1.789-.123 3.365.07 4.278.128.132.014.266.033.399.05a88.32 88.32 0 0 1-.628 1.484c-2.271 5.21-4.043 8.719-4.337 12.235-.143 1.512-.288 2.953.216 4.393h.072c.144.071.144.144.216.36v.287c-.216-.07-.143-.359-.216-.503h-.072c-.143.215.072.864.216 1.152.072.288.144.647.36.935l.073.145h.143c.072 0 .072 0 .145.143.143.145.288.217.36.289.071 0 .216.072.143.144 0 .07-.266.005-.35 0 .02.046.062.216.062.216 0 .072.145.143.145.216.071.144.071.216.216.288.071.072.216.144.36.288.36.36-.144.648.36.792zm.432-.287a.396.396 0 0 1 .217.36c-.145-.072-.36-.216-.217-.36zm-.216-.288c-.071-.144-.288-.216-.288-.432.145.072.36.144.288.432zm-.792-.72v-.145c.145 0 .145.145.145.217-.072 0-.145-.072-.145-.072z" fill="#b51b15"/><linearGradient id="R" gradientUnits="userSpaceOnUse" x1="102.454" y1="86.057" x2="99.437" y2="101.769"><stop offset=".096" style="stop-color:#110808;stop-opacity:0"/><stop offset=".189" style="stop-color:#110808;stop-opacity:.27558"/><stop offset=".314" style="stop-color:#110808;stop-opacity:.64595"/><stop offset=".434" style="stop-color:#110808"/><stop offset=".445" style="stop-color:#110808"/><stop offset=".565" style="stop-color:#110808"/><stop offset=".635" style="stop-color:#110808;stop-opacity:.83916"/><stop offset=".741" style="stop-color:#110808;stop-opacity:.59488"/><stop offset=".857" style="stop-color:#110808;stop-opacity:.32822"/><stop offset="1" style="stop-color:#110808;stop-opacity:0"/></linearGradient><path class="highlight" fill="url(#R)" d="M98.231 91.652c1.536.119 4.27.373 6.056.482.525-1.503.561-2.177.561-2.687.072-.792-.216-1.656-.647-2.232-1.08-1.368-2.376-2.232-3.313-2.448-.864-.216-1.223 0-1.296.216 0 .144.144.216.36.648.36.72-.216 2.16-.504 2.808-.409 1.091-.815 2.167-1.217 3.213z" transform="translate(529.12 -118.967)" opacity=".91"/><linearGradient id="S" gradientUnits="userSpaceOnUse" x1="103.758" y1="87.933" x2="101.002" y2="102.286"><stop offset=".043" style="stop-color:#110808;stop-opacity:0"/><stop offset=".151" style="stop-color:#110808;stop-opacity:.27558"/><stop offset=".296" style="stop-color:#110808;stop-opacity:.64595"/><stop offset=".434" style="stop-color:#110808"/><stop offset=".441" style="stop-color:#110808"/><stop offset=".519" style="stop-color:#110808"/><stop offset=".662" style="stop-color:#110808;stop-opacity:.70229"/><stop offset=".864" style="stop-color:#110808;stop-opacity:.2824"/><stop offset="1" style="stop-color:#110808;stop-opacity:0"/></linearGradient><path class="highlight" fill="url(#S)" d="M106.174 108.323c-.272.722-1.79 3.11-4.012 5.156-2.113 1.946-3.61 3.008-4.649 3.008-.755 0-1.136-1.697-.823-3.95.603-4.32 3.125-10.665 5.1-14.732a.088.088 0 0 1 .013-.072c.04-.063.077-.127.115-.19.187-.382.36-.742.524-1.086-2.325-.22-4.098-.576-5.806-.784a88.32 88.32 0 0 1-.628 1.485c-2.27 5.21-4.043 8.719-4.337 12.235-.143 1.512-.288 2.952.216 4.393h.072c.144.071.144.143.216.36v.287c-.216-.071-.143-.36-.216-.504h-.072c-.143.216.072.865.216 1.153.072.288.145.647.36.935l.073.145h.143c.072 0 .072 0 .145.143.143.145.288.217.36.288.071 0 .216.073.144.145 0 .07-.267.005-.35 0 .019.046.062.216.062.216 0 .072.144.143.144.216.071.144.071.215.216.288.071.072.216.144.36.288.36.36-.144.648.36.792.215.144.431.216.648.288.071.144.071.144.288.216.648.144 1.08.215 1.728.215 1.152 0 2.75-.088 4.894-1.975.259-.227.515-.457.767-.693.103-.097.18-.199.27-.303.116-.132.277-.242.413-.353.195-.157.413-.328.574-.522a.581.581 0 0 0 .145-.327.502.502 0 0 0 .214-.033c.174-.069.247-.25.336-.397.104-.176.26-.14.385-.288.251-.293 2.484-2.564 2.731-4.109.1-.618-.173-1.656-1.339-1.934z" transform="translate(529.12 -118.967)" opacity=".91"/><radialGradient id="T" cx="113.418" cy="93.021" r="37.673" gradientUnits="userSpaceOnUse" transform="translate(529.12 -118.967)"><stop offset="0" style="stop-color:#110808;stop-opacity:0"/><stop offset=".544" style="stop-color:#110808;stop-opacity:0"/><stop offset=".884" style="stop-color:#110808"/></radialGradient><path class="highlight" fill="url(#T)" d="M96.69 112.538c.444-3.184 1.93-7.461 3.472-11.122a32.772 32.772 0 0 1-1.547-1.092c-.92-.696-2.14-1.292-3.096-2.056-2.03 4.6-3.576 7.869-3.848 11.125a26.35 26.35 0 0 0-.13 1.808c.859 6.722 5.363 6.75 8.398 4.154-.999.738-1.798 1.132-2.426 1.132-.755 0-1.136-1.697-.823-3.95z" transform="translate(529.12 -118.967)" opacity=".91"/><radialGradient id="U" cx="98.423" cy="79.982" r="25.655" gradientUnits="userSpaceOnUse" transform="translate(529.12 -118.967)"><stop offset="0" style="stop-color:#110808;stop-opacity:0"/><stop offset=".516" style="stop-color:#110808;stop-opacity:0"/><stop offset=".724" style="stop-color:#110808"/></radialGradient><path class="highlight" fill="url(#U)" d="M108.085 94.875c1.023-1.22 1.069-4.01-1.296-3.708-.022.208.135.467.003.729-.072.145-.454.235-.945.28-.595.053-2.75-.117-4.774-.287-4.562-.265-6.262.169-8.175 1.025-1.458.652-2.793 2.457-2.313 2.826.286-.027.697-.147 1.374-.244 1.79-.124 3.365.07 4.278.128.8.085 1.608.21 2.466.344 5.602.477 8.026.523 9.382-1.093z" transform="translate(529.12 -118.967)" opacity=".91"/><linearGradient id="V" gradientUnits="userSpaceOnUse" x1="109.289" y1="99.32" x2="94.687" y2="117.044"><stop offset=".21" style="stop-color:#110808"/><stop offset=".435" style="stop-color:#110808;stop-opacity:.68377"/><stop offset=".922" style="stop-color:#110808;stop-opacity:0"/></linearGradient><path class="highlight" fill="url(#V)" d="M106.174 108.323c-.272.722-1.79 3.11-4.012 5.156-.835.769-1.57 1.394-2.223 1.876-3.035 2.596-7.54 2.568-8.397-4.154-.022.872.046 1.728.345 2.585h.072c.144.071.144.143.216.36v.287c-.216-.071-.143-.36-.216-.504h-.072c-.143.216.072.865.216 1.153.072.288.144.647.36.935l.073.145h.143c.072 0 .072 0 .145.143.143.145.288.217.36.288.071 0 .216.073.144.145 0 .07-.267.005-.35 0 .019.046.061.216.061.216 0 .072.145.143.145.216.071.144.071.215.216.288.071.072.216.144.36.288.36.36-.144.648.36.792.215.144.431.216.648.288.071.144.071.144.288.216.648.144 1.08.215 1.728.215 1.152 0 2.75-.088 4.894-1.975.259-.227.515-.457.767-.693.103-.097.18-.199.27-.303.116-.132.277-.242.413-.353.195-.157.413-.328.574-.522a.581.581 0 0 0 .145-.327.502.502 0 0 0 .214-.033c.174-.069.247-.25.336-.397.104-.176.26-.14.385-.288.251-.293 2.484-2.564 2.731-4.109.1-.618-.173-1.656-1.339-1.934zm-12.63 8.919v-.145c.144 0 .144.145.144.217-.072 0-.145-.072-.145-.072zm.791.72c-.07-.144-.288-.216-.288-.432.145.072.36.143.288.432zm.216.288a.396.396 0 0 1 .217.36c-.145-.072-.36-.216-.217-.36z" transform="translate(529.12 -118.967)" opacity=".91"/></g></g></svg>